<?xml version="1.0" encoding="utf-8"?>
<svg version="1.1" id="logo" xmlns="http://www.w3.org/2000/svg" xmlns:xlink="http://www.w3.org/1999/xlink" x="0px" y="0px"
	 viewBox="0 0 634.3 368.1" style="enable-background:new 0 0 634.3 368.1;" xml:space="preserve">
<style type="text/css">
	.st0{fill:#00C1D4;}
	.st1{fill:#FF6699;stroke:#FAFAFA;stroke-width:0.75;stroke-miterlimit:10;}
	.st2{fill:#FAFAFA;}
	.st3{fill:#EF60A3;stroke:#FAFAFA;stroke-width:0.75;stroke-miterlimit:10;}
	.st4{fill:#FF6699;stroke:#FAFAFA;stroke-width:2;stroke-miterlimit:10;}
	.st5{fill:#00C1D4;stroke:#FFFFFF;stroke-width:2;stroke-miterlimit:10;}
	.st6{clip-path:url(#SVGID_2_);}
	.st7{clip-path:url(#SVGID_4_);}
	.st8{fill:none;stroke:#FF6699;stroke-width:4;stroke-miterlimit:10;}
	.st9{fill:#00C1D4;stroke:#FAFAFA;stroke-width:5;stroke-miterlimit:10;}
	.st10{fill:#00C1D4;stroke:#FAFAFA;stroke-width:2;stroke-miterlimit:10;}
	.st11{clip-path:url(#SVGID_6_);}
	.st12{clip-path:url(#SVGID_8_);}
	.st13{clip-path:url(#SVGID_10_);}
	.st14{clip-path:url(#SVGID_12_);}
	.st15{clip-path:url(#SVGID_14_);}
	.st16{clip-path:url(#SVGID_16_);}
</style>
<rect x="52.9" y="31.5" class="st4" width="530" height="307"/>
<g>
	<g>
		<path class="st5" d="M284.8,295.2l-3.1,25.9c-0.1,0.8-0.1,1.6-0.2,2.3c-0.1,0.8-0.1,1.6-0.1,2.4c0,2,0.6,3.1,1.8,3.1
			c2.2,0,4.2-1.9,6-5.6c1.8-3.8,2.7-7.9,2.7-12.4c0-7.5-2.3-13.7-6.8-18.5c-4.5-4.9-10.2-7.3-17.1-7.3c-7.5,0-13.7,3-18.8,8.9
			c-5.1,6-7.6,13.2-7.6,21.8c0,8.8,2.5,16.1,7.6,21.9c5.1,5.8,11.5,8.7,19.2,8.7c8.1,0,15.6-2.1,22.4-6.2l4.5,8.7
			c-0.2,0.1-0.4,0.2-0.6,0.3c-0.2,0.1-0.3,0.1-0.3,0.2l-1,0.5c-7.9,4.2-15.9,6.4-24.1,6.4c-9.5,0-17.5-2.6-24.1-7.8
			c-4.7-3.7-8.3-8.5-10.9-14.2c-2.6-5.8-4-12-4-18.5c0-11.4,3.6-21,10.8-28.8c7.2-7.8,16.1-11.7,26.8-11.7c9.6,0,17.6,3.4,24.2,10.1
			c6.5,6.6,9.8,14.9,9.8,24.8c0,7.7-1.9,14.4-5.8,19.9c-3.8,5.6-8.4,8.3-13.7,8.3c-3,0-5.6-1.6-7.8-4.9c-3.6,3.4-7.1,5.1-10.3,5.1
			c-4.2,0-7.7-2-10.6-6c-2.8-4-4.2-9-4.2-15c0-6.6,1.7-12.1,5.1-16.5c3.4-4.4,7.6-6.7,12.6-6.7c2.7,0,5.4,1.1,7.8,3.3l0.6-2.3H284.8
			z M273.5,314.3c0-2.8-0.5-5.1-1.6-6.9c-1.1-1.8-2.4-2.7-4-2.7c-2,0-3.7,1.3-5,3.9c-1.4,2.6-2,5.8-2,9.6c0,2.9,0.4,5.3,1.2,7.2
			c0.8,1.9,1.9,2.8,3.2,2.8c2.1,0,4-1.4,5.6-4.2C272.7,321,273.5,317.9,273.5,314.3z"/>
	</g>
	<g>
		<path class="st5" d="M463.9,298.5c0,4.6-1.3,8.4-3.8,11.4c-2.5,2.9-5.8,4.4-9.8,4.4c-4.3,0-7.8-1.4-10.4-4.3
			c-2.6-2.8-3.9-6.7-3.9-11.7c0-4.6,1.3-8.4,3.8-11.2c2.6-2.8,6-4.2,10.3-4.2c4.1,0,7.4,1.4,10,4.3
			C462.7,290,463.9,293.8,463.9,298.5z M447.2,350.1l-6.7-4.8l45.4-64.1l6.9,4.8L447.2,350.1z M452.7,298.8c0-4.3-0.9-6.4-2.6-6.4
			c-1.8,0-2.7,2.1-2.7,6.3c0,4.2,0.9,6.3,2.7,6.3C451.8,304.9,452.7,302.8,452.7,298.8z M497.2,333.1c0,4.6-1.3,8.4-3.8,11.4
			c-2.5,2.9-5.8,4.4-9.8,4.4c-4.3,0-7.8-1.4-10.4-4.3c-2.6-2.8-3.9-6.7-3.9-11.7c0-4.6,1.3-8.4,3.8-11.2c2.6-2.8,6-4.2,10.2-4.2
			c4.1,0,7.4,1.4,10,4.3C496,324.7,497.2,328.4,497.2,333.1z M486,333.4c0-4.3-0.9-6.5-2.6-6.5c-1.8,0-2.7,2.1-2.7,6.3
			c0,4.2,0.9,6.3,2.7,6.3C485.1,339.5,486,337.5,486,333.4z"/>
	</g>
	<polygon class="st5" points="98,319.9 98,331.8 85.2,331.8 81.1,356.1 63.6,356.1 67.8,331.8 58.7,331.8 54.5,356.1 37.2,356.1 
		41.4,331.8 30.4,331.8 30.4,319.9 43.5,319.9 45.1,310 34.3,310 34.3,298 47.3,298 51.2,275.3 68.5,275.3 64.5,298 73.6,298 
		77.6,275.3 95,275.3 91,298 101.6,298 101.6,310 89,310 87.3,319.9 	"/>
	<polygon class="st5" points="598.8,319.9 598.8,331.8 586.1,331.8 581.9,356.1 564.5,356.1 568.6,331.8 559.5,331.8 555.4,356.1 
		538.1,356.1 542.3,331.8 531.3,331.8 531.3,319.9 544.3,319.9 546,310 535.1,310 535.1,298 548.1,298 552,275.3 569.3,275.3 
		565.3,298 574.4,298 578.5,275.3 595.8,275.3 591.9,298 602.4,298 602.4,310 589.8,310 588.1,319.9 	"/>
	<g>
		<path class="st5" d="M359.8,327.2h-17.9v-17c1.3,0.1,2.2,0.1,2.8,0.1c3.4,0,5.9-0.7,7.5-2.2c1.6-1.5,2.3-3.8,2.3-7
			c0-5.1-1.3-7.7-4-7.7c-2.6,0-3.9,2.6-3.9,7.9h-18.1c0-6.5,1.4-11.6,4.1-15.2c1.8-2.5,4.4-4.5,7.6-6c3-1.5,6.5-2.2,10.3-2.2
			c6.6,0,12,2.1,16.2,6.4c4.2,4.3,6.3,9.8,6.3,16.4c0,5.1-1.1,9.3-3.4,12.5c-2.2,3.3-5.6,5.5-10,6.6V327.2z M361.5,343
			c0,2.9-1,5.3-3.1,7.3c-2.1,2-4.6,3.1-7.4,3.1c-2.8,0-5.3-1-7.4-3.1c-2-2.1-3.1-4.6-3.1-7.5c0-2.9,1-5.4,3.1-7.5
			c2-2.1,4.5-3.1,7.4-3.1c3,0,5.5,1,7.5,3.1C360.4,337.5,361.5,340,361.5,343z"/>
		<path class="st5" d="M404.6,343c0,2.9-1.1,5.3-3.1,7.3c-2.1,2-4.6,3.1-7.4,3.1s-5.3-1-7.4-3.1c-2-2.1-3.1-4.6-3.1-7.5
			c0-2.9,1-5.4,3.1-7.4c2.1-2.1,4.5-3.1,7.4-3.1c3,0,5.5,1,7.5,3.1C403.5,337.4,404.6,340,404.6,343z M403.4,327.5h-18.3v-48.5h18.3
			V327.5z"/>
	</g>
	<g>
		<path class="st5" d="M159.4,327.2h-17.9v-17c1.3,0.1,2.2,0.1,2.8,0.1c3.4,0,5.9-0.7,7.5-2.2c1.6-1.5,2.3-3.8,2.3-7
			c0-5.1-1.3-7.7-4-7.7c-2.6,0-3.9,2.6-3.9,7.9h-18.1c0-6.5,1.4-11.6,4.1-15.2c1.8-2.5,4.4-4.5,7.6-6c3-1.5,6.5-2.2,10.3-2.2
			c6.6,0,12,2.1,16.2,6.4c4.2,4.3,6.3,9.8,6.3,16.4c0,5.1-1.1,9.3-3.4,12.5c-2.2,3.3-5.6,5.5-10,6.6V327.2z M161.1,343
			c0,2.9-1,5.3-3.1,7.3c-2.1,2-4.6,3.1-7.4,3.1c-2.8,0-5.3-1-7.4-3.1c-2-2.1-3.1-4.6-3.1-7.5c0-2.9,1-5.4,3.1-7.5
			c2-2.1,4.5-3.1,7.4-3.1c3,0,5.5,1,7.5,3.1C160.1,337.5,161.1,340,161.1,343z"/>
		<path class="st5" d="M204.2,343c0,2.9-1.1,5.3-3.1,7.3c-2.1,2-4.6,3.1-7.4,3.1c-2.8,0-5.3-1-7.4-3.1c-2-2.1-3.1-4.6-3.1-7.5
			c0-2.9,1-5.4,3.1-7.4c2.1-2.1,4.5-3.1,7.4-3.1c3,0,5.5,1,7.5,3.1C203.2,337.4,204.2,340,204.2,343z M203.1,327.5h-18.3v-48.5h18.3
			V327.5z"/>
	</g>
</g>
<g>
	<path class="st5" d="M84.7,58.6V96H147v47.7H84.7v41h70.5v50.2h-124V8.3h124v50.2H84.7z"/>
	<path class="st5" d="M324.6,8.3v50.2h-52v176.3h-53.3V58.6h-51.4V8.3H324.6z"/>
	<path class="st5" d="M395.9,8.3v226.6h-53.6V8.3H395.9z"/>
	<path class="st5" d="M603.5,234.9h-53.6l-70.7-126.4v126.4h-53.6V8.6h53.6l70.7,128V8.6h53.6V234.9z"/>
</g>
</svg>
