<svg id="icons" xmlns="http://www.w3.org/2000/svg" xmlns:xlink="http://www.w3.org/1999/xlink">

    <symbol id="unknown" viewBox="0 0 512 512">
        <path d="m512 256c0 141.382812-114.617188 256-256 256-141.386719 0-256-114.617188-256-256 0-141.386719 114.613281-256 256-256 141.382812 0 256 114.613281 256 256zm0 0" fill="#1da2dd"/><path d="m382.117188 449.578125v29.246094c-37.222657 21.117187-80.261719 33.175781-126.121094 33.175781-27.03125 0-53.070313-4.191406-77.53125-11.953125-17.03125-5.402344-33.300782-12.550781-48.585938-21.222656v-29.246094c0-49.914063 38.441406-90.863281 87.351563-94.8125 2.570312-.210937 5.160156-.316406 7.785156-.316406h61.953125c7.324219 0 14.449219.816406 21.292969 2.382812 42.296875 9.675781 73.855469 47.535157 73.855469 92.746094zm0 0" fill="#512375"/><path d="m382.121094 449.574219v29.25c-22.726563 12.890625-47.613282 22.410156-73.996094 27.855469-14.777344 3.0625-30.023438 4.847656-45.613281 5.234374-2.160157.050782-4.335938.082032-6.507813.082032-27.03125 0-53.070312-4.1875-77.53125-11.953125v-50.46875c0-6.738281.699219-13.320313 2.039063-19.664063 2.714843-12.957031 8.074219-24.929687 15.484375-35.359375 3.164062-4.460937 6.71875-8.640625 10.59375-12.484375l22.675781 17.710938 26.75-20.898438 26.746094 20.898438 26.742187-20.898438 26.746094 20.898438 19.886719-15.527344c16.113281 17.03125 25.984375 40.027344 25.984375 65.324219zm0 0" fill="#673389"/><g fill="#512375"><path d="m262.550781 376.296875v135.617187c-2.183593.054688-4.355469.085938-6.550781.085938s-4.378906-.03125-6.550781-.09375v-135.609375zm0 0"/><path d="m255.988281 393.394531-42.828125 23.800781-13.03125-60.601562 26.613282-15.675781"/><path d="m255.988281 393.394531 42.828125 23.800781 13.03125-60.601562-26.613281-15.675781"/></g><path d="m289.9375 317.800781v41.65625c0 15.25-10.054688 28.140625-23.90625 32.421875-3.167969.980469-6.546875 1.515625-10.042969 1.515625-18.742187 0-33.9375-15.195312-33.9375-33.9375v-41.65625zm0 0" fill="#eaa27f"/><path d="m389.738281 383.757812-26.738281-20.898437-26.75 20.898437-26.746094-20.898437-26.742187 20.898437-26.746094-20.898437-26.75 20.898437-26.75-20.898437-26.761719 20.898437-26.746094-20.898437-1.652343 1.285156-25.109375 19.613281c12.488281-107.277343 12.488281-214.546874 0-321.828124 7.542968-1.273438 15.097656-2.433594 22.644531-3.476563 81.625-11.433594 163.234375-10.261719 244.847656 3.476563-12.472656 107.28125-12.472656 214.550781 0 321.828124zm0 0" fill="#f46d11"/><path d="m249.964844 241.496094-12.351563 2.453125-31.535156 6.261719-16.582031 3.289062-13.773438-48.261719 29.21875-3.019531 20.332032-2.089844 16.144531-1.671875zm0 0" fill="#eaa27f"/><path d="m336.261719 205.238281-13.769531 48.261719-16.574219-3.289062-31.546875-6.261719-12.347656-2.453125 8.546874-43.039063 16.144532 1.671875 20.34375 2.089844zm0 0" fill="#eaa27f"/><path d="m244.5625 225.925781c0 6.917969-2.632812 13.25-6.949219 18.023438l-31.535156 6.261719-16.582031 3.289062-13.773438-48.261719 29.21875-3.019531 20.332032-2.089844c11.136718 3.28125 19.289062 13.601563 19.289062 25.796875zm0 0" fill="#f6ba97"/><path d="m230.984375 225.921875c0 7.359375-5.964844 13.324219-13.324219 13.324219s-13.324218-5.964844-13.324218-13.324219 5.964843-13.320313 13.324218-13.320313 13.324219 5.960938 13.324219 13.320313zm0 0" fill="#2f373b"/><path d="m321.238281 225.925781c0 10.691407-6.269531 19.949219-15.320312 24.285157l-31.546875-6.261719-12.347656-2.453125 8.546874-43.039063 16.144532 1.671875 20.34375 2.089844c8.429687 4.542969 14.179687 13.46875 14.179687 23.707031zm0 0" fill="#f6ba97"/><path d="m307.652344 225.921875c0 7.359375-5.964844 13.324219-13.324219 13.324219s-13.320313-5.964844-13.320313-13.324219 5.960938-13.320313 13.320313-13.320313 13.324219 5.960938 13.324219 13.320313zm0 0" fill="#2f373b"/><path d="m228.265625 223.570312c0 3.152344-2.554687 5.710938-5.707031 5.710938s-5.707032-2.558594-5.707032-5.710938c0-3.152343 2.554688-5.707031 5.707032-5.707031s5.707031 2.554688 5.707031 5.707031zm0 0" fill="#fff"/><path d="m305.589844 223.570312c0 3.152344-2.554688 5.710938-5.707032 5.710938-3.15625 0-5.710937-2.558594-5.710937-5.710938 0-3.152343 2.554687-5.707031 5.710937-5.707031 3.152344 0 5.707032 2.554688 5.707032 5.707031zm0 0" fill="#fff"/><path d="m147.355469 364.144531-25.109375 19.613281c12.488281-107.277343 12.488281-214.546874 0-321.828124 7.542968-1.273438 15.097656-2.433594 22.644531-3.476563 10.238281 57.71875 21.480469 201.894531 2.464844 305.691406zm0 0" fill="#d65a05"/>
    </symbol>

    <symbol id="challenge" viewBox="0 0 412 640">
        <g><g><g><path d="M339.024,168.612c-1.939,2.687-1.333,6.438,1.354,8.377c11.574,8.354,25.259,12.771,39.575,12.771     c37.318,0,67.679-30.36,67.679-67.679s-30.36-67.679-67.679-67.679s-67.679,30.36-67.679,67.679     c0,13.879,4.172,27.22,12.066,38.579c1.891,2.723,5.629,3.394,8.351,1.503s3.395-5.63,1.503-8.351     c-6.489-9.34-9.92-20.313-9.92-31.731c0-30.701,24.978-55.679,55.679-55.679s55.679,24.978,55.679,55.679     s-24.978,55.679-55.679,55.679c-11.779,0-23.035-3.632-32.552-10.501C344.715,165.319,340.964,165.925,339.024,168.612z"/><path d="M365.242,130.285c-3.313,0-6,2.687-6,6v0.406c0,9.287,6.221,17.137,14.711,19.634v12.154c0,3.313,2.687,6,6,6     s6-2.687,6-6v-12.154c8.49-2.497,14.711-10.347,14.711-19.634c0-11.29-9.185-20.475-20.475-20.475h-0.203     c-4.821,0-8.744-3.923-8.744-8.744c0-4.673,3.801-8.474,8.474-8.474h0.474c4.673,0,8.475,3.801,8.475,8.474v0.135     c0,3.313,2.687,6,6,6s6-2.687,6-6v-0.135c0-9.287-6.221-17.137-14.711-19.634V75.684c0-3.313-2.687-6-6-6s-6,2.687-6,6v12.155     c-8.49,2.496-14.711,10.347-14.711,19.634c0,11.438,9.306,20.744,20.744,20.744h0.203c4.673,0,8.475,3.802,8.475,8.475     c0,4.672-3.802,8.474-8.475,8.474h-0.474c-4.673,0-8.474-3.802-8.474-8.474v-0.406     C371.242,132.972,368.556,130.285,365.242,130.285z"/></g><path d="M451.119,226.676c0,3.313,2.687,6,6,6h7.662v74.489c0,16.767-11.761,30.828-27.463,34.396    c2.735-9.011,4.18-18.438,4.18-28.009V227.72c0-3.884-3.16-7.044-7.044-7.044H325.452c-3.884,0-7.044,3.16-7.044,7.044v85.832    c0,9.48,1.417,18.818,4.102,27.751c-15.154-3.956-26.372-17.761-26.372-34.138v-74.489h8.314c3.313,0,6-2.687,6-6s-2.687-6-6-6    h-20.314v86.489c0,24.73,19.09,45.073,43.305,47.1c3.831,8.222,8.813,15.934,14.89,22.864c4.925,5.616,7.637,12.823,7.637,20.293    v25.511h-15.784l-6.053,0.053v28.559l0.053,6.053h75.753c3.313,0,6-2.687,6-6s-2.687-6-6-6h-63.806v-10.664h9.837h59.969h9.837    v16.664c0,3.313,2.687,6,6,6s6-2.687,6-6v-22.611l-0.053-6.053h-21.784v-25.511c0-7.471,2.712-14.677,7.637-20.293    c6.057-6.908,11.027-14.593,14.853-22.784c24.712-1.517,44.354-22.093,44.354-47.18v-86.489h-19.662    C453.806,220.676,451.119,223.362,451.119,226.676z M429.498,232.676v7.304h-99.09v-7.304H429.498z M361.969,422.933v-8.494    h35.969v8.494H361.969z M408.552,369.218c-6.845,7.805-10.614,17.821-10.614,28.204v5.017h-35.969v-5.017    c0-10.382-3.77-20.397-10.613-28.204c-13.508-15.406-20.947-35.176-20.947-55.666v-61.572h99.09v61.572    C429.498,334.042,422.059,353.812,408.552,369.218z"/><g><path d="M113.328,164.229c20.245-1.947,58.493-9.459,87.192-37.884c2.354-2.332,2.372-6.131,0.04-8.485     c-2.331-2.354-6.131-2.371-8.485-0.041c-27.027,26.771-64.877,33.021-79.896,34.466c-8.244,0.793-14.462,7.63-14.462,15.902     v12.801c0,39.816,32.393,72.209,72.209,72.209s72.209-32.393,72.209-72.209v-9.768c0-8.233-3.997-15.735-10.691-20.067     c-8.197-5.304-14.737-21.665-16.887-27.041c-1.229-3.077-4.723-4.574-7.798-3.345c-3.077,1.23-4.575,4.722-3.345,7.799     c4.705,11.771,11.402,26.122,21.51,32.662c3.215,2.08,5.211,5.908,5.211,9.992v9.768c0,33.199-27.01,60.209-60.209,60.209     s-60.209-27.01-60.209-60.209v-12.801C109.717,166.128,111.27,164.427,113.328,164.229z"/><path d="M246.104,141.283v-8.452c0-10.342-2.036-20.374-6.053-29.818c-0.555-1.301-1.182-2.654-1.854-3.998     c-3.673-7.424-8.519-14.171-14.403-20.054c-14.393-14.394-33.523-22.319-53.869-22.319c-29.148,0-55.308,16.234-68.262,42.351     c-0.677,1.353-1.304,2.704-1.866,4.023c-4.016,9.444-6.052,19.476-6.052,29.815v8.452c0,3.313,2.687,6,6,6s6-2.687,6-6v-8.452     c0-8.717,1.714-17.169,5.092-25.113c0.466-1.092,0.99-2.222,1.567-3.376c10.923-22.021,32.963-35.7,57.521-35.7     c17.141,0,33.258,6.678,45.385,18.805c4.958,4.958,9.04,10.641,12.144,16.912c0.574,1.149,1.098,2.278,1.556,3.354     c3.381,7.948,5.095,16.399,5.095,25.119v8.452c0,3.313,2.687,6,6,6S246.104,144.597,246.104,141.283z"/><path d="M298.633,445.597H82.578v-95.234c0-43.814,35.646-79.461,79.461-79.461h15.773c43.814,0,79.461,35.646,79.461,79.461     v79.932c0,3.313,2.687,6,6,6s6-2.688,6-6v-79.932c0-50.432-41.029-91.461-91.461-91.461h-15.773     c-50.432,0-91.461,41.029-91.461,91.461v95.234H41.219c-3.313,0-6,2.687-6,6s2.687,6,6,6h257.414c3.313,0,6-2.687,6-6     S301.946,445.597,298.633,445.597z"/><path d="M177.575,322.163l22.51-31.622c1.922-2.7,1.291-6.446-1.408-8.368c-2.7-1.921-6.447-1.291-8.367,1.409l-20.385,28.636     l-20.384-28.636c-1.921-2.699-5.667-3.329-8.367-1.409c-2.699,1.922-3.33,5.668-1.408,8.368l22.511,31.623     c1.759,2.47,4.618,3.943,7.649,3.943c0,0,0.001,0,0.002,0C172.959,326.106,175.818,324.632,177.575,322.163z"/><path d="M163.926,348.444v80.488c0,3.313,2.687,6,6,6s6-2.687,6-6v-80.488c0-3.314-2.687-6-6-6S163.926,345.13,163.926,348.444z"/></g></g></g>
    </symbol>

    <symbol id="peace" viewBox='0 0 100 100'>
        <path d="M50.306,2.501c21.742,0.206 42.194,16.927 46.342,38.519c2.968,15.444 -2.343,32.207 -13.685,43.151c-13.173,12.711 -33.927,16.882 -51.171,9.701c-15.237,-6.346 -26.674,-21.131 -28.871,-37.536c-2.689,-20.079 9.008,-41.238 27.546,-49.632c6.206,-2.811 13.029,-4.225 19.839,-4.203Zm-0.597,2.5c-20.491,0.195 -39.809,15.878 -43.849,36.216c-2.902,14.613 2.031,30.53 12.719,40.967c12.42,12.128 32.1,16.162 48.414,9.485c14.478,-5.926 25.393,-19.873 27.57,-35.385c2.658,-18.943 -8.24,-38.973 -25.564,-47.074c-6.01,-2.811 -12.616,-4.231 -19.29,-4.209Zm-4.257,80.617c-6.329,-0.831 -12.364,-3.349 -17.41,-7.228l17.41,-17.41c0,8.213 0,16.425 0,24.638Zm26.506,-7.228c-5.046,3.879 -11.097,6.399 -17.41,7.228l0,-24.638c5.803,5.803 11.606,11.607 17.41,17.41Zm-14.91,4.267c3.876,-0.851 7.573,-2.382 10.924,-4.511c0,0 -10.924,-11.13 -10.924,-11.13c0,5.213 0,10.427 0,15.641Zm-25.146,-4.592c3.369,2.179 7.132,3.732 11.05,4.592l0,-15.641c-3.683,3.683 -7.366,7.366 -11.05,11.049Zm22.853,-63.656c15.154,2.059 28.171,14.578 30.67,29.725c1.589,9.633 -0.936,19.834 -6.926,27.681c0,0 -23.951,-23.699 -23.951,-23.699l0,-33.734c0.069,0.009 0.138,0.018 0.207,0.027Zm-9.303,33.707l-23.841,23.842c-10.216,-13.247 -9.497,-33.892 2.075,-46.362c5.661,-6.099 13.472,-10.136 21.766,-11.214c0,11.245 0,22.49 0,33.734Zm11.596,-1.035l21.017,21.017c7.494,-11.646 6.73,-27.728 -1.667,-38.544c-4.761,-6.133 -11.679,-10.526 -19.318,-12.204l-0.032,-0.006c0,9.912 0,19.824 0,29.737Zm-14.128,-29.731c-20.436,4.489 -33.748,30.704 -21.075,50.608c0,0 21.107,-20.877 21.107,-20.877l0,-29.737c-0.011,0.002 -0.021,0.004 -0.032,0.006Z" style="" fill-rule="nonzero"/>
    </symbol>

    <symbol id="stop" viewBox="0 0 100 125">
        <g><g><g><path d="M34.94,41.66c-1.1,0-2-0.9-2-2V17.99c0-3.87,3.08-7.02,6.86-7.02c3.78,0,6.86,3.15,6.86,7.02c0,1.1-0.9,2-2,2s-2-0.9-2-2     c0-1.67-1.28-3.02-2.86-3.02s-2.86,1.36-2.86,3.02v21.67C36.94,40.77,36.05,41.66,34.94,41.66z"/></g></g></g><g><g><g><path d="M54.4,46.56c-1.1,0-2-0.9-2-2v-31.9c0-1.67-1.28-3.03-2.86-3.03c-1.58,0-2.86,1.36-2.86,3.03v31.9c0,1.1-0.9,2-2,2     s-2-0.9-2-2v-31.9c0-3.87,3.08-7.03,6.86-7.03c3.78,0,6.86,3.15,6.86,7.03v31.9C56.4,45.66,55.5,46.56,54.4,46.56z"/></g></g></g><g><g><g><path d="M64.12,30.53c-1.1,0-2-0.9-2-2V18.07c0-1.67-1.29-3.03-2.86-3.03s-2.86,1.36-2.86,3.03c0,1.1-0.9,2-2,2s-2-0.9-2-2     c0-3.88,3.08-7.03,6.86-7.03s6.86,3.15,6.86,7.03v10.46C66.12,29.64,65.23,30.53,64.12,30.53z"/></g></g></g><g><g><g><path d="M51.26,94.36c-2.77,0-5.79-0.27-6.28-0.31c-0.07-0.01-0.13-0.02-0.2-0.03C32.83,91.7,24.15,81.19,24.15,69.03V39.05     c0-1.72,0.91-3.25,2.43-4.09c1.68-0.93,3.84-0.86,5.49,0.18l2,1.38c0.06,0.04,0.12,0.09,0.17,0.13c2.61,2.26,4.11,5.29,4.11,8.31     v11.73c3.29,1.68,12.17,7.04,12.17,16.15c0,1.1-0.9,2-2,2s-2-0.9-2-2c0-8.33-10.81-12.99-10.92-13.03     c-0.29-0.12-0.54-0.31-0.75-0.55c-0.31-0.36-0.5-0.85-0.5-1.33V44.96c0-1.83-0.96-3.72-2.65-5.22l-1.83-1.27     c-0.42-0.26-1.01-0.2-1.35-0.02c-0.32,0.18-0.36,0.39-0.36,0.59v29.98c0,10.21,7.27,19.05,17.3,21.04     c2.58,0.23,7.1,0.46,8.62,0.11c10.47-2.45,17.79-11.14,17.79-21.15v-41.3c0-1.67-1.28-3.03-2.86-3.03s-2.86,1.36-2.86,3.03v20.09     c0,1.1-0.9,2-2,2s-2-0.9-2-2V27.73c0-3.88,3.08-7.03,6.86-7.03s6.86,3.15,6.86,7.03v41.3c0,11.88-8.59,22.17-20.88,25.05     C54.06,94.29,52.69,94.36,51.26,94.36z"/></g></g></g>
    </symbol>

    <symbol id="close" viewBox="0 0 96 120">
        <path d="M87.66,19.66,59.31,48,87.66,76.34A8,8,0,0,1,76.34,87.66L48,59.31,19.66,87.66A8,8,0,0,1,8.34,76.34L36.69,48,8.34,19.66A8,8,0,0,1,19.66,8.34L48,36.69,76.34,8.34A8,8,0,0,1,87.66,19.66Z"/>
    </symbol>

    <symbol id="crown" viewBox="0 0 100 125">
        <path d="M20.91,38.32a9,9,0,1,0-10,9l5,29.92V88.65a2,2,0,0,0,2,2h0l64.17-.07a2,2,0,0,0,2-2V77.21l5-29.93A9,9,0,1,0,83.46,46L67.82,57.43l-15-30.5a9,9,0,1,0-5.68,0l-16,30.5L16.46,46.08A9,9,0,0,0,20.91,38.32Zm-1,48.32V78.93H80.08v7.65ZM88.1,33.31a5,5,0,1,1-5,5A5,5,0,0,1,88.1,33.31ZM45,18.37a5,5,0,1,1,5,5A5,5,0,0,1,45,18.37Zm-12.77,44a2,2,0,0,0,1.34-1L49.94,30.16,65.28,61.33a2,2,0,0,0,3,.73L84.53,50.2,80.41,74.93H19.59L15.5,50.4,30.57,62A2,2,0,0,0,32.22,62.4ZM11.9,43.34a5,5,0,1,1,5-5A5,5,0,0,1,11.9,43.34Z"/>
    </symbol>

    <symbol id="hidden" viewBox="0 0 100 125">
        <g transform="translate(0,-952.36215)"><path d="M 88.75 8.96875 A 2.0002005 2.0002005 0 0 0 87.59375 9.5625 L 9.59375 87.5625 A 2.0002005 2.0002005 0 1 0 12.40625 90.40625 L 35.125 67.6875 C 39.821895 69.190393 44.819075 70 50 70 C 65.583668 70 79.496151 62.63905 88.5625 51.21875 A 2.0002005 2.0002005 0 0 0 88.5625 48.75 C 83.4009 42.248321 76.684282 37.09748 68.96875 33.84375 L 90.40625 12.40625 A 2.0002005 2.0002005 0 0 0 88.75 8.96875 z M 50 30 C 34.416316 30 20.503843 37.32981 11.4375 48.75 A 2.0002005 2.0002005 0 0 0 11.4375 51.21875 C 15.339408 56.13365 20.119264 60.2944 25.5625 63.4375 A 2.0019915 2.0019915 0 1 0 27.5625 59.96875 C 23.041968 57.35845 19.10667 53.904 15.71875 49.9375 C 24.06505 40.19075 36.28545 34 50 34 C 51.933041 34 53.850921 34.10603 55.71875 34.34375 A 2.0002005 2.0002005 0 1 0 56.21875 30.375 C 54.184075 30.11604 52.102179 30 50 30 z M 65.90625 36.90625 C 73.093781 39.641215 79.366407 44.208465 84.3125 50 C 75.965651 59.7663 63.730282 66 50 66 C 45.976128 66 42.082736 65.439224 38.375 64.4375 L 43.78125 59.03125 C 45.55594 60.263002 47.686328 61 50 61 C 56.051433 61 61 56.0515 61 50 C 61 47.690687 60.259018 45.556429 59.03125 43.78125 L 65.90625 36.90625 z M 47.25 39.375 A 2.0002005 2.0002005 0 0 0 46.71875 39.46875 C 43.138808 40.58411 40.355238 43.48778 39.375 47.125 A 2.0049313 2.0049313 0 0 0 43.25 48.15625 C 43.871562 45.84996 45.636626 44.01962 47.90625 43.3125 A 2.0002005 2.0002005 0 0 0 47.25 39.375 z M 56.125 46.6875 C 56.662615 47.679373 57 48.784058 57 50 C 57 53.8897 53.889693 57 50 57 C 48.781634 57 47.64593 56.70298 46.65625 56.15625 L 56.125 46.6875 z " transform="translate(0,952.36215)"/></g>
    </symbol>

    <symbol id="visible" viewBox="0 0 25 31.25">
        <g><g><path d="M22.386,12.183C22.195,11.95,17.647,6.5,12.5,6.5s-9.695,5.45-9.886,5.683c-0.152,0.185-0.152,0.45,0,0.635    C2.805,13.05,7.353,18.5,12.5,18.5s9.695-5.45,9.886-5.683C22.538,12.633,22.538,12.367,22.386,12.183z M12.5,17.5    c-3.998,0-7.793-3.853-8.834-5c1.041-1.147,4.837-5,8.834-5s7.793,3.853,8.834,5C20.293,13.647,16.498,17.5,12.5,17.5z"/><path d="M12.5,9.5c-1.654,0-3,1.346-3,3s1.346,3,3,3s3-1.346,3-3S14.154,9.5,12.5,9.5z M12.5,14.5c-1.103,0-2-0.897-2-2    s0.897-2,2-2s2,0.897,2,2S13.603,14.5,12.5,14.5z"/></g></g>
    </symbol>

    <symbol id="arrow-down" viewBox="0 0 100 125">
        <g><polygon points="79.3,42.1 76.4,39.3 51.3,65 25.5,39.9 22.7,42.7 51.3,70.7"/></g>
    </symbol>

    <symbol id="dashboard" viewBox="0 0 100 125">
        <g><path d="M95.5,8.7H53.7v47.1h41.8V8.7z M4.5,8.7v28.6h41.8V8.7H4.5z M46.3,44.2H4.5v47.1h41.8V44.2z M95.5,62.7H53.7   v28.6h41.8V62.7z"/></g>
    </symbol>

    <symbol id="profile" viewBox="0 0 100 125">
        <g><path fill="none" d="M50.654,8.409c-23.159,0-42,18.841-42,42c0,9.731,3.336,18.693,8.911,25.822l0.639-4.553l0.016-0.182   c0-6.765,5.133-11.865,11.938-11.865h40.979c6.808,0,11.944,5.101,11.944,11.865v0.094l0.654,4.648   c5.579-7.13,8.918-16.094,8.918-25.83C92.654,27.25,73.813,8.409,50.654,8.409z M50.66,52.492c-9.941,0-18.002-8.061-18.002-18.001   c0-9.936,8.061-17.998,18.002-17.998c9.936,0,17.997,8.063,17.997,17.998C68.657,44.431,60.596,52.492,50.66,52.492z"/><path d="M50.66,16.493c-9.941,0-18.002,8.063-18.002,17.998c0,9.94,8.061,18.001,18.002,18.001c9.936,0,17.997-8.061,17.997-18.001   C68.657,24.555,60.596,16.493,50.66,16.493z"/><path d="M50.654,5.409c-24.854,0-45,20.147-45,45c0,11.46,4.291,21.914,11.345,29.859c8.243,9.285,20.263,15.141,33.655,15.141   c13.39,0,25.406-5.854,33.649-15.134c7.058-7.946,11.351-18.401,11.351-29.866C95.654,25.556,75.508,5.409,50.654,5.409z    M83.736,76.238l-0.654-4.648v-0.094c0-6.765-5.137-11.865-11.944-11.865H30.158c-6.806,0-11.938,5.101-11.938,11.865l-0.016,0.182   l-0.639,4.553C11.99,69.102,8.654,60.14,8.654,50.409c0-23.159,18.841-42,42-42s42,18.841,42,42   C92.654,60.145,89.315,69.108,83.736,76.238z"/></g>
    </symbol>

    <symbol id="power" viewBox="0 0 96 120">
        <path d="M48.004 92.052c-23.988 0-43.5-19.516-43.5-43.5 0-13.596 6.504-26.608 17.396-34.808 0.888-0.656 2.136-0.488 2.8 0.396s0.488 2.136-0.396 2.8c-9.896 7.448-15.804 19.264-15.804 31.612 0 21.772 17.72 39.5 39.5 39.5s39.5-17.728 39.5-39.5c0-12.492-5.756-23.988-15.804-31.552-0.884-0.664-1.060-1.916-0.396-2.792 0.664-0.892 1.916-1.076 2.8-0.404 11.056 8.316 17.396 20.98 17.396 34.748 0.008 23.984-19.504 43.5-43.492 43.5z"/><path d="M48.504 39.948c-1.104 0-2-0.896-2-2v-32c0-1.104 0.896-2 2-2s2 0.896 2 2v32c0 1.108-0.896 2-2 2z"/>
    </symbol>

    <symbol id="edit" viewBox="0 0 24 30">
        <path d="M21.528,3.847l-1.376-1.376c-1.137-1.138-2.99-1.138-4.128,0L3.642,14.854c-0.078,0.078-0.135,0.174-0.165,0.28  l-1.834,6.421c-0.065,0.227-0.001,0.47,0.165,0.637c0.124,0.124,0.289,0.19,0.459,0.19c0.06,0,0.12-0.008,0.178-0.025l6.421-1.835  c0.106-0.03,0.203-0.087,0.281-0.165L21.528,7.975c0.552-0.551,0.855-1.284,0.855-2.064C22.383,5.131,22.08,4.398,21.528,3.847z   M8.347,19.322L3.21,20.789l1.468-5.136l9.971-9.971l3.669,3.669L8.347,19.322z M20.611,7.058l-1.376,1.376l-3.669-3.669  l1.376-1.376c0.632-0.632,1.661-0.631,2.294,0l1.376,1.376c0.307,0.306,0.475,0.714,0.475,1.147  C21.086,6.344,20.917,6.751,20.611,7.058z"/>
    </symbol>

    <symbol id="complete" viewBox="0 0 100 125">
        <g stroke="none" stroke-width="1" fill="none" fill-rule="evenodd"><g fill="#000000"><g transform="translate(26.000000, 26.000000)"><path d="M17.9999878,32.4 L10.9999878,25.4 C10.2267891,24.6268014 8.97318644,24.6268014 8.19998779,25.4 L8.19998779,25.4 C7.42678914,26.1731986 7.42678914,27.4268014 8.19998779,28.2 L16.5857742,36.5857864 C17.3668228,37.366835 18.6331528,37.366835 19.4142014,36.5857864 L40.5999878,15.4 C41.3731864,14.6268014 41.3731864,13.3731986 40.5999878,12.6 L40.5999878,12.6 C39.8267891,11.8268014 38.5731864,11.8268014 37.7999878,12.6 L17.9999878,32.4 Z"/></g></g></g>
    </symbol>

    <symbol id="prev" viewBox="0 0 32 40">
        <g><path d="M22.29,30.71l-14-14a1,1,0,0,1,0-1.42l14-14a1,1,0,1,1,1.42,1.42L10.41,16l13.3,13.29a1,1,0,0,1-1.42,1.42Z"/></g>
    </symbol>

    <symbol id="next" viewBox="0 0 32 40">
        <g style="transform: rotate(.5turn) translate(-100%, -80%);"><path d="M22.29,30.71l-14-14a1,1,0,0,1,0-1.42l14-14a1,1,0,1,1,1.42,1.42L10.41,16l13.3,13.29a1,1,0,0,1-1.42,1.42Z"/></g>
    </symbol>

</svg>