<?xml version="1.0" encoding="utf-8"?>
<svg version="1.1" id="logo" xmlns="http://www.w3.org/2000/svg" xmlns:xlink="http://www.w3.org/1999/xlink" x="0px" y="0px"
	 viewBox="0 0 646 352" style="enable-background:new 0 0 646 352;" xml:space="preserve">
<style type="text/css">
	.st0{fill:#FF6699;stroke:#FAFAFA;stroke-width:2;stroke-miterlimit:10;}
	.st1{fill:#00C1D4;stroke:#FFFFFF;stroke-width:2;stroke-miterlimit:10;}
</style>
<g>
	<rect x="57.9" y="40.4" class="st0" width="530" height="261.9"/>
	<g>
		<g>
			<path class="st1" d="M295.5,285.8l-2.6,21.4c-0.1,0.7-0.1,1.3-0.2,1.9c-0.1,0.7-0.1,1.3-0.1,2c0,1.7,0.5,2.6,1.5,2.6
				c1.8,0,3.5-1.6,5-4.6c1.5-3.1,2.2-6.5,2.2-10.2c0-6.2-1.9-11.3-5.6-15.3c-3.7-4-8.4-6-14.1-6c-6.2,0-11.3,2.5-15.5,7.4
				c-4.2,5-6.3,10.9-6.3,18c0,7.3,2.1,13.3,6.3,18.1c4.2,4.8,9.5,7.2,15.9,7.2c6.7,0,12.9-1.7,18.5-5.1l3.7,7.2
				c-0.2,0.1-0.3,0.2-0.5,0.2s-0.2,0.1-0.2,0.2l-0.8,0.4c-6.5,3.5-13.1,5.3-19.9,5.3c-7.9,0-14.5-2.1-19.9-6.4
				c-3.9-3.1-6.9-7-9-11.7c-2.1-4.8-3.3-9.9-3.3-15.3c0-9.4,3-17.4,8.9-23.8s13.3-9.7,22.2-9.7c7.9,0,14.5,2.8,20,8.3
				c5.4,5.5,8.1,12.3,8.1,20.5c0,6.4-1.6,11.9-4.8,16.4c-3.1,4.6-6.9,6.9-11.3,6.9c-2.5,0-4.6-1.3-6.4-4c-3,2.8-5.9,4.2-8.5,4.2
				c-3.5,0-6.4-1.7-8.8-5c-2.3-3.3-3.5-7.4-3.5-12.4c0-5.5,1.4-10,4.2-13.6s6.3-5.5,10.4-5.5c2.2,0,4.5,0.9,6.4,2.7l0.5-1.9h7.6
				V285.8z M286.1,301.6c0-2.3-0.4-4.2-1.3-5.7c-0.9-1.5-2-2.2-3.3-2.2c-1.7,0-3.1,1.1-4.1,3.2c-1.2,2.1-1.7,4.8-1.7,7.9
				c0,2.4,0.3,4.4,1,6c0.7,1.6,1.6,2.3,2.6,2.3c1.7,0,3.3-1.2,4.6-3.5C285.5,307.1,286.1,304.5,286.1,301.6z"/>
		</g>
		<g>
			<path class="st1" d="M360.6,288.5c0,3.8-1.1,6.9-3.1,9.4c-2.1,2.4-4.8,3.6-8.1,3.6c-3.6,0-6.4-1.2-8.6-3.6
				c-2.1-2.3-3.2-5.5-3.2-9.7c0-3.8,1.1-6.9,3.1-9.3c2.1-2.3,5-3.5,8.5-3.5c3.4,0,6.1,1.2,8.3,3.6
				C359.6,281.5,360.6,284.6,360.6,288.5z M346.8,331.1l-5.5-4l37.5-53l5.7,4L346.8,331.1z M351.3,288.7c0-3.6-0.7-5.3-2.1-5.3
				c-1.5,0-2.2,1.7-2.2,5.2c0,3.5,0.7,5.2,2.2,5.2C350.6,293.8,351.3,292.1,351.3,288.7z M388.1,317.1c0,3.8-1.1,6.9-3.1,9.4
				c-2.1,2.4-4.8,3.6-8.1,3.6c-3.6,0-6.4-1.2-8.6-3.6c-2.1-2.3-3.2-5.5-3.2-9.7c0-3.8,1.1-6.9,3.1-9.3c2.1-2.3,5-3.5,8.4-3.5
				c3.4,0,6.1,1.2,8.3,3.6C387.1,310.2,388.1,313.2,388.1,317.1z M378.9,317.3c0-3.6-0.7-5.4-2.1-5.4c-1.5,0-2.2,1.7-2.2,5.2
				c0,3.5,0.7,5.2,2.2,5.2C378.1,322.4,378.9,320.7,378.9,317.3z"/>
		</g>
		<polygon class="st1" points="140.9,306.2 140.9,316 130.3,316 126.9,336.1 112.5,336.1 115.9,316 108.4,316 104.9,336.1 
			90.6,336.1 94.1,316 85,316 85,306.2 95.8,306.2 97.2,298 88.2,298 88.2,288.1 99,288.1 102.2,269.3 116.5,269.3 113.2,288.1 
			120.7,288.1 124,269.3 138.4,269.3 135.1,288.1 143.9,288.1 143.9,298 133.5,298 132,306.2 		"/>
		<polygon class="st1" points="554.8,306.2 554.8,316 544.3,316 540.8,336.1 526.5,336.1 529.8,316 522.3,316 518.9,336.1 
			504.6,336.1 508.1,316 499,316 499,306.2 509.8,306.2 511.2,298 502.2,298 502.2,288.1 512.9,288.1 516.1,269.3 530.4,269.3 
			527.1,288.1 534.6,288.1 538,269.3 552.3,269.3 549.1,288.1 557.8,288.1 557.8,298 547.4,298 546,306.2 		"/>
		<g>
			<path class="st1" d="M440,312.2h-14.8v-14.1c1.1,0.1,1.8,0.1,2.3,0.1c2.8,0,4.9-0.6,6.2-1.8c1.3-1.2,1.9-3.1,1.9-5.8
				c0-4.2-1.1-6.4-3.3-6.4c-2.1,0-3.2,2.1-3.2,6.5h-15c0-5.4,1.2-9.6,3.4-12.6c1.5-2.1,3.6-3.7,6.3-5c2.5-1.2,5.4-1.8,8.5-1.8
				c5.5,0,9.9,1.7,13.4,5.3c3.5,3.6,5.2,8.1,5.2,13.6c0,4.2-0.9,7.7-2.8,10.3c-1.8,2.7-4.6,4.5-8.3,5.5v6.1H440z M441.4,325.3
				c0,2.4-0.8,4.4-2.6,6c-1.7,1.7-3.8,2.6-6.1,2.6s-4.4-0.8-6.1-2.6c-1.7-1.7-2.6-3.8-2.6-6.2s0.8-4.5,2.6-6.2
				c1.7-1.7,3.7-2.6,6.1-2.6c2.5,0,4.5,0.8,6.2,2.6C440.5,320.7,441.4,322.8,441.4,325.3z"/>
			<path class="st1" d="M477.1,325.3c0,2.4-0.9,4.4-2.6,6c-1.7,1.7-3.8,2.6-6.1,2.6s-4.4-0.8-6.1-2.6c-1.7-1.7-2.6-3.8-2.6-6.2
				s0.8-4.5,2.6-6.1c1.7-1.7,3.7-2.6,6.1-2.6c2.5,0,4.5,0.8,6.2,2.6C476.1,320.7,477.1,322.8,477.1,325.3z M476.1,312.5h-15.1v-40.1
				h15.1V312.5z"/>
		</g>
		<g>
			<path class="st1" d="M191.7,312.2h-14.8v-14.1c1.1,0.1,1.8,0.1,2.3,0.1c2.8,0,4.9-0.6,6.2-1.8c1.3-1.2,1.9-3.1,1.9-5.8
				c0-4.2-1.1-6.4-3.3-6.4c-2.1,0-3.2,2.1-3.2,6.5h-15c0-5.4,1.2-9.6,3.4-12.6c1.5-2.1,3.6-3.7,6.3-5c2.5-1.2,5.4-1.8,8.5-1.8
				c5.5,0,9.9,1.7,13.4,5.3c3.5,3.6,5.2,8.1,5.2,13.6c0,4.2-0.9,7.7-2.8,10.3c-1.8,2.7-4.6,4.5-8.3,5.5v6.1H191.7z M193.1,325.3
				c0,2.4-0.8,4.4-2.6,6s-3.8,2.6-6.1,2.6s-4.4-0.8-6.1-2.6c-1.7-1.7-2.6-3.8-2.6-6.2s0.8-4.5,2.6-6.2c1.7-1.7,3.7-2.6,6.1-2.6
				c2.5,0,4.5,0.8,6.2,2.6C192.2,320.7,193.1,322.8,193.1,325.3z"/>
			<path class="st1" d="M228.7,325.3c0,2.4-0.9,4.4-2.6,6c-1.7,1.7-3.8,2.6-6.1,2.6s-4.4-0.8-6.1-2.6c-1.7-1.7-2.6-3.8-2.6-6.2
				s0.8-4.5,2.6-6.1c1.7-1.7,3.7-2.6,6.1-2.6c2.5,0,4.5,0.8,6.2,2.6C227.9,320.7,228.7,322.8,228.7,325.3z M227.8,312.5h-15.1v-40.1
				h15.1V312.5z"/>
		</g>
	</g>
	<g>
		<path class="st1" d="M86.1,66.6v38h63.3V153H86.1v41.6h71.6v51H31.7V15.5h125.9v51H86.1V66.6z"/>
		<path class="st1" d="M329.7,15.5v51h-52.8v179.1h-54.1v-179h-52.2V15.5H329.7z"/>
		<path class="st1" d="M402.1,15.5v230.2h-54.4V15.5H402.1z"/>
		<path class="st1" d="M613,245.7h-54.4l-71.8-128.4v128.4h-54.4V15.8h54.4l71.8,130v-130H613V245.7z"/>
	</g>
</g>
</svg>
