<svg xmlns="http://www.w3.org/2000/svg" xmlns:xlink="http://www.w3.org/1999/xlink" width="961" height="807.431" viewBox="0 0 961 807.431"><defs><filter id="a" x="0" y="0" width="961" height="807.431" filterUnits="userSpaceOnUse"><feOffset dx="1" dy="3" input="SourceAlpha"/><feGaussianBlur stdDeviation="2" result="b"/><feFlood flood-opacity="0.161"/><feComposite operator="in" in2="b"/><feComposite in="SourceGraphic"/></filter><filter id="c" x="105.553" y="262.151" width="237.393" height="235.619" filterUnits="userSpaceOnUse"><feOffset dx="1" dy="3" input="SourceAlpha"/><feGaussianBlur stdDeviation="2" result="d"/><feFlood flood-opacity="0.161"/><feComposite operator="in" in2="d"/><feComposite in="SourceGraphic"/></filter><filter id="e" x="371.187" y="262.151" width="238.859" height="235.398" filterUnits="userSpaceOnUse"><feOffset dx="1" dy="3" input="SourceAlpha"/><feGaussianBlur stdDeviation="2" result="f"/><feFlood flood-opacity="0.161"/><feComposite operator="in" in2="f"/><feComposite in="SourceGraphic"/></filter><filter id="g" x="626.832" y="263.192" width="218.824" height="232.616" filterUnits="userSpaceOnUse"><feOffset dx="1" dy="3" input="SourceAlpha"/><feGaussianBlur stdDeviation="2" result="h"/><feFlood flood-opacity="0.161"/><feComposite operator="in" in2="h"/><feComposite in="SourceGraphic"/></filter></defs><g transform="translate(-58.5 -137.5)"><g transform="matrix(1, 0, 0, 1, 58.5, 137.5)" filter="url(#a)"><path d="M150.536,773.986c21.271-14.492,57.108-41.194,66.176-103.868C86.66,605.484.5,492.535.5,364,.5,163.245,210.7.5,470,.5S939.5,163.245,939.5,364c0,189.177-186.661,344.6-425.162,361.9l.643-.025q-9.268.752-19.176,1.085-12.274.515-24.721.539c-56.1,1.984-69.375,2.1-77.258,3.336-13.152-1.664-36.834,12.91-68.436,27.483-29.937,13.806-66.991,27.612-108.925,27.614A187.954,187.954,0,0,1,150.536,773.986Z" transform="translate(9.5 7.5)" fill="#f96599" stroke="#25c1d4" stroke-width="10"/></g><g transform="translate(43.906 -27.917)"><g transform="matrix(1, 0, 0, 1, 14.59, 165.42)" filter="url(#c)"><path d="M130.5-218.553q31.092,0,53.183,11.353a77.791,77.791,0,0,1,33.546,32.217q11.455,20.864,11.455,48.888a90.9,90.9,0,0,1-6.955,36.1q-6.955,16.262-18.614,25.569t-25.16,9.307q-12.478,0-19.535-6.443t-6.239-20.967q-15.137,27.41-43.979,27.41a42.082,42.082,0,0,1-22.6-6.137A41.4,41.4,0,0,1,70.161-78.537q-5.523-11.148-5.523-25.876,0-19.023,7.978-34.262A61.151,61.151,0,0,1,94.4-162.608a56.593,56.593,0,0,1,30.785-8.693q14.932,0,25.773,5.932a40.084,40.084,0,0,1,16.466,16.364,49.2,49.2,0,0,1,5.625,23.728,86.815,86.815,0,0,1-.818,9.818l-4.5,27.205q-.409,4.091-.409,5.318,0,6.341,3.068,8.9t8.8,2.557q7.978,0,15.035-6.443t11.25-18.716q4.193-12.273,4.193-28.842,0-23.319-9.409-40.706a65.645,65.645,0,0,0-27.717-27.1q-18.307-9.716-44.49-9.716-30.069,0-51.854,12.989a85.42,85.42,0,0,0-33.137,35.387q-11.353,22.4-11.353,50.217,0,40.91,23.012,62.286t65.354,21.785L116.595-5Q67.5-5.819,40.4-31.286T13.3-104.413q0-32.319,14.728-58.4a105.3,105.3,0,0,1,41.422-40.91Q96.139-218.553,130.5-218.553ZM113.935-71.48a36.176,36.176,0,0,0,20.251-6.034q9.2-6.034,14.728-17.387t5.523-26.489q0-15.546-8.387-24.444t-23.728-8.9a36.475,36.475,0,0,0-20.353,5.932,39.632,39.632,0,0,0-14.216,16.773q-5.114,10.841-5.114,25.16,0,15.75,8.591,25.569T113.935-71.48Z" transform="translate(102.26 488.7)" fill="#fff" stroke="#f8f8f8" stroke-width="10"/></g><g transform="matrix(1, 0, 0, 1, 14.59, 165.42)" filter="url(#e)"><path d="M178.463-121.063,168.37-74.346h40.373v23.935H163.468L150.779,8.418h-24.8l12.689-58.829H77.82L65.131,8.418h-24.8L53.02-50.411H8.033V-74.346H57.922l10.093-46.717H24.47v-24.224H73.206L85.894-204.98h24.8L98.006-145.286h60.847l12.689-59.694h24.8l-12.689,59.694h41.238v24.224Zm-24.8,0H92.816L82.722-74.346H143.57Z" transform="translate(373.15 475.13)" fill="#fff" stroke="#f8f8f8" stroke-width="10"/></g><g transform="matrix(1, 0, 0, 1, 14.59, 165.42)" filter="url(#g)"><path d="M72.688-202.308q28.159,0,44.968,15.372t16.809,42.669q0,30.457-18.82,45.543T64.068-83.064v33.906H39.358v-51.72H50.851q26.435,0,42.095-9.195t15.66-34.193q0-16.953-9.913-26.722t-26.866-9.769q-17.815,0-28.59,10.057T32.461-144.266H7.176q0-17.24,8.045-30.458a53.073,53.073,0,0,1,22.987-20.4Q53.15-202.308,72.688-202.308ZM67.8-22.436V8.308H36.2V-22.436ZM202.276-199.147,198.541-51.17h-21.55l-3.735-147.977ZM204-22.436V8.308H172.106V-22.436Z" transform="translate(629.66 473.5)" fill="#fff" stroke="#f8f8f8" stroke-width="10"/></g></g></g></svg>