<?xml version="1.0" encoding="utf-8"?>
<!-- Generator: Adobe Illustrator 22.1.0, SVG Export Plug-In . SVG Version: 6.00 Build 0)  -->
<svg version="1.1" id="Calque_1" xmlns="http://www.w3.org/2000/svg" xmlns:xlink="http://www.w3.org/1999/xlink" x="0px" y="0px"
	 viewBox="0 0 512.1 512.1" style="enable-background:new 0 0 512.1 512.1;" xml:space="preserve">
<style type="text/css">
	.st0{fill:#FAFAFA;}
	.st1{fill:#00C1D4;}
	.st2{fill:#FF6699;stroke:#FAFAFA;stroke-width:0.75;stroke-miterlimit:10;}
	.st3{fill:#EF60A3;stroke:#FAFAFA;stroke-width:0.75;stroke-miterlimit:10;}
	.st4{fill:#FF6699;stroke:#FAFAFA;stroke-width:2;stroke-miterlimit:10;}
	.st5{fill:#00C1D4;stroke:#FFFFFF;stroke-width:2;stroke-miterlimit:10;}
	.st6{clip-path:url(#SVGID_2_);}
	.st7{clip-path:url(#SVGID_4_);}
	.st8{fill:none;stroke:#FF6699;stroke-width:4;stroke-miterlimit:10;}
	.st9{fill:#00C1D4;stroke:#FAFAFA;stroke-width:2;stroke-miterlimit:10;}
	.st10{clip-path:url(#SVGID_6_);}
	.st11{fill:#FF6699;stroke:#FAFAFA;stroke-width:10;stroke-miterlimit:10;}
	.st12{fill:#00C1D4;stroke:#FFFFFF;stroke-width:5;stroke-miterlimit:10;}
	.st13{fill:#FF6699;stroke:#FAFAFA;stroke-width:5;stroke-miterlimit:10;}
	.st14{fill:#FF6699;stroke:#FAFAFA;stroke-width:4;stroke-miterlimit:10;}
	.st15{fill:#00C1D4;stroke:#FFFFFF;stroke-miterlimit:10;}
	.st16{fill:#FF6699;stroke:#FAFAFA;stroke-width:3;stroke-miterlimit:10;}
	.st17{fill:#00C1D4;stroke:#FFFFFF;stroke-width:0.75;stroke-miterlimit:10;}
</style>
<g>
	<path class="st0" d="M-1890.4,50.9l-0.9,7.5c0,0.2,0,0.5-0.1,0.7c0,0.2,0,0.5,0,0.7c0,0.6,0.2,0.9,0.5,0.9c0.6,0,1.2-0.5,1.7-1.6
		s0.8-2.3,0.8-3.6c0-2.2-0.7-4-2-5.4c-1.3-1.4-3-2.1-5-2.1c-2.2,0-4,0.9-5.5,2.6c-1.5,1.7-2.2,3.8-2.2,6.3c0,2.6,0.7,4.7,2.2,6.4
		s3.3,2.5,5.6,2.5c2.4,0,4.5-0.6,6.5-1.8l1.3,2.5c-0.1,0-0.1,0.1-0.2,0.1c0,0-0.1,0-0.1,0.1l-0.3,0.1c-2.3,1.2-4.6,1.8-7,1.8
		c-2.8,0-5.1-0.8-7-2.3c-1.4-1.1-2.4-2.5-3.2-4.1c-0.8-1.7-1.2-3.5-1.2-5.4c0-3.3,1-6.1,3.1-8.4c2.1-2.3,4.7-3.4,7.8-3.4
		c2.8,0,5.1,1,7,2.9s2.8,4.3,2.8,7.2c0,2.2-0.6,4.2-1.7,5.8s-2.4,2.4-4,2.4c-0.9,0-1.6-0.5-2.3-1.4c-1.1,1-2.1,1.5-3,1.5
		c-1.2,0-2.2-0.6-3.1-1.7c-0.8-1.2-1.2-2.6-1.2-4.4c0-1.9,0.5-3.5,1.5-4.8s2.2-1.9,3.7-1.9c0.8,0,1.6,0.3,2.3,0.9l0.2-0.7
		L-1890.4,50.9L-1890.4,50.9z M-1893.7,56.4c0-0.8-0.2-1.5-0.5-2c-0.3-0.5-0.7-0.8-1.2-0.8c-0.6,0-1.1,0.4-1.5,1.1
		c-0.4,0.7-0.6,1.7-0.6,2.8c0,0.8,0.1,1.5,0.4,2.1c0.2,0.5,0.6,0.8,0.9,0.8c0.6,0,1.1-0.4,1.6-1.2
		C-1894,58.4-1893.7,57.6-1893.7,56.4z"/>
</g>
<g>
	<g>
		<rect x="-2124.6" y="-183.6" class="st1" width="509.8" height="259.5"/>
		
			<text transform="matrix(0.85 0 0 1 -2139.8811 75.3346)" style="font-family:'Futura-CondensedExtraBold'; font-size:345.9633px;">ETIN</text>
		
			<text transform="matrix(0.85 0 0 1 -2139.8811 75.3346)" style="fill:none;stroke:#FFFFFF;stroke-miterlimit:10; font-family:'Futura-CondensedExtraBold'; font-size:345.9633px;">ETIN</text>
	</g>
	<path class="st2" d="M-2124.5-183.6V75.9h509.8v-259.5H-2124.5z M-1639.1,39c-8.6,0-15.5,7-15.5,15.5h-429.9
		c0-8.6-7-15.5-15.5-15.5v-185.8c8.6,0,15.5-7,15.5-15.5h429.9c0,8.6,7,15.5,15.5,15.5C-1639.1-146.8-1639.1,39-1639.1,39z"/>
	<polygon class="st0" points="-2095,-163.9 -2095,-160.4 -2098.7,-160.4 -2099.9,-153.3 -2105,-153.3 -2103.8,-160.4 
		-2106.5,-160.4 -2107.7,-153.3 -2112.7,-153.3 -2111.5,-160.4 -2114.7,-160.4 -2114.7,-163.9 -2110.9,-163.9 -2110.4,-166.8 
		-2113.6,-166.8 -2113.6,-170.3 -2109.8,-170.3 -2108.7,-176.9 -2103.6,-176.9 -2104.8,-170.3 -2102.1,-170.3 -2100.9,-176.9 
		-2095.8,-176.9 -2097,-170.3 -2093.9,-170.3 -2093.9,-166.8 -2097.6,-166.8 -2098.1,-163.9 	"/>
	<polygon class="st0" points="-2102.7,-166.8 -2105.4,-166.8 -2105.9,-163.9 -2103.2,-163.9 	"/>
	<g>
		<path class="st0" d="M-1638.1-162.3h-5v-4.7c0.3,0,0.6,0,0.8,0c0.9,0,1.6-0.2,2.1-0.6c0.4-0.4,0.6-1,0.6-1.9
			c0-1.4-0.4-2.1-1.1-2.1c-0.7,0-1.1,0.7-1.1,2.2h-5c0-1.8,0.4-3.2,1.1-4.2c0.5-0.7,1.2-1.3,2.1-1.7c0.8-0.4,1.8-0.6,2.9-0.6
			c1.8,0,3.3,0.6,4.5,1.8c1.2,1.2,1.8,2.7,1.8,4.6c0,1.4-0.3,2.6-0.9,3.5c-0.6,0.9-1.5,1.5-2.8,1.8V-162.3z M-1637.6-158
			c0,0.8-0.3,1.5-0.9,2c-0.6,0.6-1.3,0.8-2,0.8c-0.8,0-1.5-0.3-2.1-0.8c-0.6-0.6-0.8-1.3-0.8-2.1c0-0.8,0.3-1.5,0.8-2.1
			c0.6-0.6,1.2-0.9,2-0.9s1.5,0.3,2.1,0.9C-1637.9-159.5-1637.6-158.8-1637.6-158z"/>
		<path class="st0" d="M-1625.6-158c0,0.8-0.3,1.5-0.9,2c-0.6,0.6-1.3,0.8-2.1,0.8s-1.5-0.3-2.1-0.8c-0.6-0.6-0.8-1.3-0.8-2.1
			c0-0.8,0.3-1.5,0.8-2.1c0.6-0.6,1.3-0.9,2.1-0.9s1.5,0.3,2.1,0.9C-1625.9-159.5-1625.6-158.8-1625.6-158z M-1626-162.2h-5v-13.5
			h5.1L-1626-162.2L-1626-162.2z"/>
	</g>
	<g>
		<path class="st3" d="M-1885.6,16.2c65,5,113.8-24.3,113.8-54.8s-43.8-55.3-97.8-55.3s-97.8,24.7-97.8,55.3
			c0,20.2,13.7,42.8,45.7,48.8l-2,35L-1885.6,16.2z"/>
		
			<text transform="matrix(1 0 0 1 -1943.9625 -22.0736)" style="fill:#FFFFFF; font-family:'ArialRoundedMTBold'; font-size:49.0854px;">?$@#!</text>
	</g>
</g>
<g>
	<rect x="-1275" y="-138.7" class="st4" width="530" height="261.9"/>
	<g>
		<g>
			<path class="st5" d="M-1037.4,106.7l-2.6,21.4c-0.1,0.7-0.1,1.3-0.2,1.9c-0.1,0.7-0.1,1.3-0.1,2c0,1.7,0.5,2.6,1.5,2.6
				c1.8,0,3.5-1.6,5-4.6c1.5-3.1,2.2-6.5,2.2-10.2c0-6.2-1.9-11.3-5.6-15.3c-3.7-4-8.4-6-14.1-6c-6.2,0-11.3,2.5-15.5,7.4
				c-4.2,5-6.3,10.9-6.3,18c0,7.3,2.1,13.3,6.3,18.1c4.2,4.8,9.5,7.2,15.9,7.2c6.7,0,12.9-1.7,18.5-5.1l3.7,7.2
				c-0.2,0.1-0.3,0.2-0.5,0.2c-0.2,0.1-0.2,0.1-0.2,0.2l-0.8,0.4c-6.5,3.5-13.1,5.3-19.9,5.3c-7.9,0-14.5-2.1-19.9-6.4
				c-3.9-3.1-6.9-7-9-11.7c-2.1-4.8-3.3-9.9-3.3-15.3c0-9.4,3-17.4,8.9-23.8c6-6.4,13.3-9.7,22.2-9.7c7.9,0,14.5,2.8,20,8.3
				c5.4,5.5,8.1,12.3,8.1,20.5c0,6.4-1.6,11.9-4.8,16.4c-3.1,4.6-6.9,6.9-11.3,6.9c-2.5,0-4.6-1.3-6.4-4c-3,2.8-5.9,4.2-8.5,4.2
				c-3.5,0-6.4-1.7-8.8-5c-2.3-3.3-3.5-7.4-3.5-12.4c0-5.5,1.4-10,4.2-13.6c2.8-3.6,6.3-5.5,10.4-5.5c2.2,0,4.5,0.9,6.4,2.7l0.5-1.9
				h7.6V106.7z M-1046.7,122.5c0-2.3-0.4-4.2-1.3-5.7s-2-2.2-3.3-2.2c-1.7,0-3.1,1.1-4.1,3.2c-1.2,2.1-1.7,4.8-1.7,7.9
				c0,2.4,0.3,4.4,1,6c0.7,1.6,1.6,2.3,2.6,2.3c1.7,0,3.3-1.2,4.6-3.5C-1047.4,128-1046.7,125.5-1046.7,122.5z"/>
		</g>
		<g>
			<path class="st5" d="M-972.3,109.5c0,3.8-1.1,6.9-3.1,9.4c-2.1,2.4-4.8,3.6-8.1,3.6c-3.6,0-6.4-1.2-8.6-3.6
				c-2.1-2.3-3.2-5.5-3.2-9.7c0-3.8,1.1-6.9,3.1-9.3c2.1-2.3,5-3.5,8.5-3.5c3.4,0,6.1,1.2,8.3,3.6
				C-973.3,102.4-972.3,105.6-972.3,109.5z M-986.1,152.1l-5.5-4l37.5-53l5.7,4L-986.1,152.1z M-981.5,109.7c0-3.6-0.7-5.3-2.1-5.3
				c-1.5,0-2.2,1.7-2.2,5.2c0,3.5,0.7,5.2,2.2,5.2C-982.3,114.7-981.5,113-981.5,109.7z M-944.8,138c0,3.8-1.1,6.9-3.1,9.4
				c-2.1,2.4-4.8,3.6-8.1,3.6c-3.6,0-6.4-1.2-8.6-3.6c-2.1-2.3-3.2-5.5-3.2-9.7c0-3.8,1.1-6.9,3.1-9.3c2.1-2.3,5-3.5,8.4-3.5
				c3.4,0,6.1,1.2,8.3,3.6C-945.8,131.1-944.8,134.2-944.8,138z M-954,138.3c0-3.6-0.7-5.4-2.1-5.4c-1.5,0-2.2,1.7-2.2,5.2
				c0,3.5,0.7,5.2,2.2,5.2C-954.8,143.3-954,141.7-954,138.3z"/>
		</g>
		<polygon class="st5" points="-1192,127.1 -1192,137 -1202.6,137 -1205.9,157.1 -1220.4,157.1 -1216.9,137 -1224.5,137 
			-1227.9,157.1 -1242.2,157.1 -1238.8,137 -1247.8,137 -1247.8,127.1 -1237,127.1 -1235.7,119 -1244.6,119 -1244.6,109 
			-1233.9,109 -1230.7,90.3 -1216.4,90.3 -1219.7,109 -1212.1,109 -1208.8,90.3 -1194.5,90.3 -1197.8,109 -1189,109 -1189,119 
			-1199.4,119 -1200.8,127.1 		"/>
		<polygon class="st5" points="-778.1,127.1 -778.1,137 -788.6,137 -792,157.1 -806.4,157.1 -803,137 -810.5,137 -813.9,157.1 
			-828.2,157.1 -824.8,137 -833.9,137 -833.9,127.1 -823.1,127.1 -821.7,119 -830.7,119 -830.7,109 -820,109 -816.7,90.3 
			-802.4,90.3 -805.8,109 -798.2,109 -794.8,90.3 -780.5,90.3 -783.8,109 -775.1,109 -775.1,119 -785.5,119 -786.9,127.1 		"/>
		<g>
			<path class="st5" d="M-892.8,133.2h-14.8v-14.1c1.1,0.1,1.8,0.1,2.3,0.1c2.8,0,4.9-0.6,6.2-1.8c1.3-1.2,1.9-3.1,1.9-5.8
				c0-4.2-1.1-6.4-3.3-6.4c-2.1,0-3.2,2.1-3.2,6.5h-15c0-5.4,1.2-9.6,3.4-12.6c1.5-2.1,3.6-3.7,6.3-5c2.5-1.2,5.4-1.8,8.5-1.8
				c5.5,0,9.9,1.7,13.4,5.3c3.5,3.6,5.2,8.1,5.2,13.6c0,4.2-0.9,7.7-2.8,10.3c-1.8,2.7-4.6,4.5-8.3,5.5v6.1H-892.8z M-891.4,146.2
				c0,2.4-0.8,4.4-2.6,6c-1.7,1.7-3.8,2.6-6.1,2.6s-4.4-0.8-6.1-2.6c-1.7-1.7-2.6-3.8-2.6-6.2s0.8-4.5,2.6-6.2
				c1.7-1.7,3.7-2.6,6.1-2.6c2.5,0,4.5,0.8,6.2,2.6C-892.3,141.7-891.4,143.8-891.4,146.2z"/>
			<path class="st5" d="M-855.8,146.2c0,2.4-0.9,4.4-2.6,6c-1.7,1.7-3.8,2.6-6.1,2.6s-4.4-0.8-6.1-2.6c-1.7-1.7-2.6-3.8-2.6-6.2
				s0.8-4.5,2.6-6.1c1.7-1.7,3.7-2.6,6.1-2.6c2.5,0,4.5,0.8,6.2,2.6C-856.7,141.6-855.8,143.8-855.8,146.2z M-856.8,133.4h-15.1
				V93.3h15.1V133.4z"/>
		</g>
		<g>
			<path class="st5" d="M-1141.2,133.2h-14.8v-14.1c1.1,0.1,1.8,0.1,2.3,0.1c2.8,0,4.9-0.6,6.2-1.8c1.3-1.2,1.9-3.1,1.9-5.8
				c0-4.2-1.1-6.4-3.3-6.4c-2.1,0-3.2,2.1-3.2,6.5h-15c0-5.4,1.2-9.6,3.4-12.6c1.5-2.1,3.6-3.7,6.3-5c2.5-1.2,5.4-1.8,8.5-1.8
				c5.5,0,9.9,1.7,13.4,5.3c3.5,3.6,5.2,8.1,5.2,13.6c0,4.2-0.9,7.7-2.8,10.3c-1.8,2.7-4.6,4.5-8.3,5.5v6.1H-1141.2z M-1139.8,146.2
				c0,2.4-0.8,4.4-2.6,6c-1.7,1.7-3.8,2.6-6.1,2.6s-4.4-0.8-6.1-2.6c-1.7-1.7-2.6-3.8-2.6-6.2s0.8-4.5,2.6-6.2
				c1.7-1.7,3.7-2.6,6.1-2.6c2.5,0,4.5,0.8,6.2,2.6C-1140.6,141.7-1139.8,143.8-1139.8,146.2z"/>
			<path class="st5" d="M-1104.2,146.2c0,2.4-0.9,4.4-2.6,6c-1.7,1.7-3.8,2.6-6.1,2.6s-4.4-0.8-6.1-2.6c-1.7-1.7-2.6-3.8-2.6-6.2
				s0.8-4.5,2.6-6.1c1.7-1.7,3.7-2.6,6.1-2.6c2.5,0,4.5,0.8,6.2,2.6C-1105,141.6-1104.2,143.8-1104.2,146.2z M-1105.1,133.4h-15.1
				V93.3h15.1V133.4z"/>
		</g>
	</g>
	<g>
		<path class="st5" d="M-1246.8-112.4v38h63.3V-26h-63.3v41.6h71.6v51h-125.9v-230.2h125.9v51h-71.6V-112.4z"/>
		<path class="st5" d="M-1003.2-163.5v51h-52.8V66.5h-54.1v-179h-52.2v-51.1H-1003.2z"/>
		<path class="st5" d="M-930.7-163.5V66.6h-54.4v-230.2H-930.7z"/>
		<path class="st5" d="M-719.9,66.6h-54.4l-71.8-128.4V66.6h-54.4v-229.8h54.4l71.8,130v-130h54.4V66.6z"/>
	</g>
</g>
<g>
	<rect x="-2119.5" y="-552.7" class="st4" width="530" height="261.9"/>
	<g>
		<g>
			<path class="st5" d="M-1881.9-307.3l-2.6,21.4c-0.1,0.7-0.1,1.3-0.2,1.9c-0.1,0.7-0.1,1.3-0.1,2c0,1.7,0.5,2.6,1.5,2.6
				c1.8,0,3.5-1.6,5-4.6c1.5-3.1,2.2-6.5,2.2-10.2c0-6.2-1.9-11.3-5.6-15.3c-3.7-4-8.4-6-14.1-6c-6.2,0-11.3,2.5-15.5,7.4
				c-4.2,5-6.3,10.9-6.3,18c0,7.3,2.1,13.3,6.3,18.1s9.5,7.2,15.9,7.2c6.7,0,12.9-1.7,18.5-5.1l3.7,7.2c-0.2,0.1-0.3,0.2-0.5,0.2
				c-0.2,0.1-0.2,0.1-0.2,0.2l-0.8,0.4c-6.5,3.5-13.1,5.3-19.9,5.3c-7.9,0-14.5-2.1-19.9-6.4c-3.9-3.1-6.9-7-9-11.7
				c-2.1-4.8-3.3-9.9-3.3-15.3c0-9.4,3-17.4,8.9-23.8c6-6.4,13.3-9.7,22.2-9.7c7.9,0,14.5,2.8,20,8.3c5.4,5.5,8.1,12.3,8.1,20.5
				c0,6.4-1.6,11.9-4.8,16.4c-3.1,4.6-6.9,6.9-11.3,6.9c-2.5,0-4.6-1.3-6.4-4c-3,2.8-5.9,4.2-8.5,4.2c-3.5,0-6.4-1.7-8.8-5
				c-2.3-3.3-3.5-7.4-3.5-12.4c0-5.5,1.4-10,4.2-13.6c2.8-3.6,6.3-5.5,10.4-5.5c2.2,0,4.5,0.9,6.4,2.7l0.5-1.9h7.6V-307.3z
				 M-1891.3-291.5c0-2.3-0.4-4.2-1.3-5.7s-2-2.2-3.3-2.2c-1.7,0-3.1,1.1-4.1,3.2c-1.2,2.1-1.7,4.8-1.7,7.9c0,2.4,0.3,4.4,1,6
				c0.7,1.6,1.6,2.3,2.6,2.3c1.7,0,3.3-1.2,4.6-3.5C-1891.9-286-1891.3-288.5-1891.3-291.5z"/>
		</g>
		<g>
			<path class="st5" d="M-1816.8-304.5c0,3.8-1.1,6.9-3.1,9.4c-2.1,2.4-4.8,3.6-8.1,3.6c-3.6,0-6.4-1.2-8.6-3.6
				c-2.1-2.3-3.2-5.5-3.2-9.7c0-3.8,1.1-6.9,3.1-9.3c2.1-2.3,5-3.5,8.5-3.5c3.4,0,6.1,1.2,8.3,3.6
				C-1817.8-311.6-1816.8-308.4-1816.8-304.5z M-1830.6-261.9l-5.5-4l37.5-53l5.7,4L-1830.6-261.9z M-1826.1-304.3
				c0-3.6-0.7-5.3-2.1-5.3c-1.5,0-2.2,1.7-2.2,5.2s0.7,5.2,2.2,5.2C-1826.8-299.3-1826.1-301-1826.1-304.3z M-1789.3-276
				c0,3.8-1.1,6.9-3.1,9.4c-2.1,2.4-4.8,3.6-8.1,3.6c-3.6,0-6.4-1.2-8.6-3.6c-2.1-2.3-3.2-5.5-3.2-9.7c0-3.8,1.1-6.9,3.1-9.3
				c2.1-2.3,5-3.5,8.4-3.5c3.4,0,6.1,1.2,8.3,3.6C-1790.3-282.9-1789.3-279.8-1789.3-276z M-1798.6-275.7c0-3.6-0.7-5.4-2.1-5.4
				c-1.5,0-2.2,1.7-2.2,5.2c0,3.5,0.7,5.2,2.2,5.2C-1799.3-270.7-1798.6-272.3-1798.6-275.7z"/>
		</g>
		<polygon class="st5" points="-2036.5,-286.9 -2036.5,-277 -2047.1,-277 -2050.5,-256.9 -2065,-256.9 -2061.5,-277 -2069,-277 
			-2072.5,-256.9 -2086.8,-256.9 -2083.3,-277 -2092.4,-277 -2092.4,-286.9 -2081.6,-286.9 -2080.2,-295 -2089.2,-295 -2089.2,-305 
			-2078.4,-305 -2075.2,-323.7 -2060.9,-323.7 -2064.2,-305 -2056.7,-305 -2053.4,-323.7 -2039,-323.7 -2042.3,-305 -2033.6,-305 
			-2033.6,-295 -2044,-295 -2045.4,-286.9 		"/>
		<polygon class="st5" points="-1622.6,-286.9 -1622.6,-277 -1633.1,-277 -1636.6,-256.9 -1651,-256.9 -1647.6,-277 -1655.1,-277 
			-1658.5,-256.9 -1672.8,-256.9 -1669.3,-277 -1678.4,-277 -1678.4,-286.9 -1667.7,-286.9 -1666.3,-295 -1675.3,-295 -1675.3,-305 
			-1664.5,-305 -1661.3,-323.7 -1647,-323.7 -1650.3,-305 -1642.8,-305 -1639.4,-323.7 -1625.1,-323.7 -1628.3,-305 -1619.6,-305 
			-1619.6,-295 -1630.1,-295 -1631.5,-286.9 		"/>
		<g>
			<path class="st5" d="M-1737.4-280.8h-14.8v-14.1c1.1,0.1,1.8,0.1,2.3,0.1c2.8,0,4.9-0.6,6.2-1.8c1.3-1.2,1.9-3.1,1.9-5.8
				c0-4.2-1.1-6.4-3.3-6.4c-2.1,0-3.2,2.1-3.2,6.5h-15c0-5.4,1.2-9.6,3.4-12.6c1.5-2.1,3.6-3.7,6.3-5c2.5-1.2,5.4-1.8,8.5-1.8
				c5.5,0,9.9,1.7,13.4,5.3c3.5,3.6,5.2,8.1,5.2,13.6c0,4.2-0.9,7.7-2.8,10.3c-1.8,2.7-4.6,4.5-8.3,5.5v6.1H-1737.4z M-1736-267.8
				c0,2.4-0.8,4.4-2.6,6c-1.7,1.7-3.8,2.6-6.1,2.6s-4.4-0.8-6.1-2.6c-1.7-1.7-2.6-3.8-2.6-6.2c0-2.4,0.8-4.5,2.6-6.2
				c1.7-1.7,3.7-2.6,6.1-2.6c2.5,0,4.5,0.8,6.2,2.6C-1736.9-272.3-1736-270.2-1736-267.8z"/>
			<path class="st5" d="M-1700.4-267.8c0,2.4-0.9,4.4-2.6,6c-1.7,1.7-3.8,2.6-6.1,2.6s-4.4-0.8-6.1-2.6c-1.7-1.7-2.6-3.8-2.6-6.2
				c0-2.4,0.8-4.5,2.6-6.1c1.7-1.7,3.7-2.6,6.1-2.6c2.5,0,4.5,0.8,6.2,2.6C-1701.3-272.4-1700.4-270.2-1700.4-267.8z M-1701.4-280.6
				h-15.1v-40.1h15.1V-280.6z"/>
		</g>
		<g>
			<path class="st5" d="M-1985.8-280.8h-14.8v-14.1c1.1,0.1,1.8,0.1,2.3,0.1c2.8,0,4.9-0.6,6.2-1.8c1.3-1.2,1.9-3.1,1.9-5.8
				c0-4.2-1.1-6.4-3.3-6.4c-2.1,0-3.2,2.1-3.2,6.5h-15c0-5.4,1.2-9.6,3.4-12.6c1.5-2.1,3.6-3.7,6.3-5c2.5-1.2,5.4-1.8,8.5-1.8
				c5.5,0,9.9,1.7,13.4,5.3c3.5,3.6,5.2,8.1,5.2,13.6c0,4.2-0.9,7.7-2.8,10.3c-1.8,2.7-4.6,4.5-8.3,5.5v6.1H-1985.8z M-1984.4-267.8
				c0,2.4-0.8,4.4-2.6,6c-1.7,1.7-3.8,2.6-6.1,2.6s-4.4-0.8-6.1-2.6c-1.7-1.7-2.6-3.8-2.6-6.2c0-2.4,0.8-4.5,2.6-6.2
				c1.7-1.7,3.7-2.6,6.1-2.6c2.5,0,4.5,0.8,6.2,2.6C-1985.2-272.3-1984.4-270.2-1984.4-267.8z"/>
			<path class="st5" d="M-1948.7-267.8c0,2.4-0.9,4.4-2.6,6c-1.7,1.7-3.8,2.6-6.1,2.6s-4.4-0.8-6.1-2.6c-1.7-1.7-2.6-3.8-2.6-6.2
				c0-2.4,0.8-4.5,2.6-6.1c1.7-1.7,3.7-2.6,6.1-2.6c2.5,0,4.5,0.8,6.2,2.6C-1949.6-272.4-1948.7-270.2-1948.7-267.8z M-1949.6-280.6
				h-15.1v-40.1h15.1V-280.6z"/>
		</g>
	</g>
	<g>
		<path class="st5" d="M-2091.4-526.4v38h63.3v48.4h-63.3v41.6h71.6v51h-125.9v-230.2h125.9v51h-71.6V-526.4z"/>
		<path class="st5" d="M-1847.7-577.5v51h-52.8v179.1h-54.1v-179h-52.2v-51.1H-1847.7z"/>
		<path class="st5" d="M-1775.3-577.5v230.2h-54.4v-230.2H-1775.3z"/>
		<path class="st5" d="M-1564.4-347.4h-54.4l-71.8-128.4v128.4h-54.4v-229.8h54.4l71.8,130v-130h54.4V-347.4z"/>
	</g>
</g>
<g>
	<path class="st3" d="M-1933.6,764.6c136.3,10.5,238.6-50.9,238.6-114.9s-91.8-115.8-205-115.8s-205,51.9-205,115.8
		c0,42.3,28.7,89.8,95.8,102.3l-4.2,73.4L-1933.6,764.6z"/>
	
		<text transform="matrix(1 0 0 1 -2055.8713 684.3459)" style="fill:#FFFFFF; font-family:'ArialRoundedMTBold'; font-size:102.9107px;">?$@#!</text>
	<g>
		<g>
			<defs>
				<path id="SVGID_1_" d="M-1933.6,764.6c136.3,10.5,238.6-50.9,238.6-114.9s-91.8-115.8-205-115.8s-205,51.9-205,115.8
					c0,42.3,28.7,89.8,95.8,102.3l-4.2,73.4L-1933.6,764.6z"/>
			</defs>
			<clipPath id="SVGID_2_">
				<use xlink:href="#SVGID_1_"  style="overflow:visible;"/>
			</clipPath>
			<g class="st6">
				
					<text transform="matrix(0.85 0 0 1 -2095.616 745.4105)" style="font-family:'Futura-CondensedExtraBold'; font-size:249.0559px;">ETIN</text>
				
					<text transform="matrix(0.85 0 0 1 -2095.616 745.4105)" style="fill:none;stroke:#FFFFFF;stroke-miterlimit:10; font-family:'Futura-CondensedExtraBold'; font-size:249.0559px;">ETIN</text>
			</g>
		</g>
	</g>
</g>
<g>
	<g>
		<path class="st1" d="M-1940.6,1131.4c136.3,10.5,238.6-50.9,238.6-114.9s-91.8-115.8-205-115.8s-205,51.9-205,115.8
			c0,42.3,28.7,89.8,95.8,102.3l-4.1,73.4L-1940.6,1131.4z"/>
		<g>
			<g>
				<defs>
					<path id="SVGID_3_" d="M-1940.6,1133.4c136.3,10.5,238.6-50.9,238.6-114.9s-91.8-115.8-205-115.8s-205,51.9-205,115.8
						c0,42.3,28.7,89.8,95.8,102.3l-4.1,73.4L-1940.6,1133.4z"/>
				</defs>
				<clipPath id="SVGID_4_">
					<use xlink:href="#SVGID_3_"  style="overflow:visible;"/>
				</clipPath>
				<g class="st7">
					<text transform="matrix(0.7 0 0 1 -2105.6296 1112.1541)" style="font-family:'Poppins-Black'; font-size:249.0559px;">ETIN</text>
					
						<text transform="matrix(0.7 0 0 1 -2105.6296 1112.1541)" style="fill:none;stroke:#FFFFFF;stroke-miterlimit:10; font-family:'Poppins-Black'; font-size:249.0559px;">ETIN</text>
				</g>
			</g>
		</g>
		<g>
			<path class="st2" d="M-2024.7,1000.4c3,2.5,4.5,6.2,4.5,11c0,2.7-0.6,5-1.8,7.1c-1.2,2-3,3.6-5.2,4.8c-2.2,1.2-4.8,1.8-7.6,1.8
				v4.8h-14.2v-14.5h5.7c2.7,0,4.8-0.3,6.2-0.9c1.4-0.6,2.1-1.6,2.1-3c0-0.8-0.2-1.4-0.6-1.8c-0.4-0.5-1-0.7-1.7-0.7
				c-0.9,0-1.5,0.3-1.9,0.9c-0.4,0.6-0.6,1.3-0.6,2.2h-14.3c-0.1-2.8,0.4-5.3,1.7-7.7c1.3-2.3,3.2-4.2,5.9-5.6
				c2.7-1.4,5.9-2.1,9.9-2.1C-2031.8,996.7-2027.7,997.9-2024.7,1000.4z M-2034.4,1035v14.5h-15V1035H-2034.4z"/>
			<path class="st2" d="M-1969.2,1042.6c-1.5,2.2-3.7,4-6.6,5.3s-6.3,2-10.3,2v5.5h-3.5v-5.6c-5.4-0.5-9.7-2-13.1-4.7
				c-3.3-2.7-5.2-6.4-5.5-11.1h16.1c0.1,2,1,3.3,2.5,4v-6.8l-1.6-0.4c-3.5-1-6.3-1.9-8.6-2.9c-2.3-1-4.3-2.5-6-4.6
				c-1.7-2.1-2.5-4.8-2.5-8.2c0-3,0.8-5.6,2.5-7.7c1.7-2.2,3.9-3.8,6.8-5c2.8-1.2,6-1.8,9.4-2v-5.5h3.5v5.5
				c5.5,0.3,9.9,1.8,13.1,4.5c3.2,2.7,5,6.4,5.3,11.1h-16.3c-0.2-1.9-0.9-3.1-2.1-3.8v6.8l2.7,0.8c3.4,1,6.2,2.1,8.4,3.1
				c2.2,1,4.1,2.5,5.7,4.5s2.4,4.6,2.4,7.8C-1966.9,1037.9-1967.7,1040.4-1969.2,1042.6z M-1989.6,1017.6v-5.7
				c-1.6,0.3-2.5,1.1-2.5,2.5C-1992.1,1015.6-1991.3,1016.6-1989.6,1017.6z M-1983.9,1037.5c0.6-0.5,0.9-1.1,0.9-2
				c0-1.2-1-2.3-3.1-3.2v6.1C-1985.2,1038.3-1984.5,1038-1983.9,1037.5z"/>
			<path class="st2" d="M-1884.1,995.5c5.8,2.4,10.4,6.1,13.6,11s4.8,10.8,4.8,17.9c0,4.6-1.1,8.9-3.3,12.8c-2.2,3.9-5.2,7-8.9,9.3
				c-3.7,2.3-7.6,3.4-11.7,3.4c-3.5,0-6.5-0.7-8.8-2.1c-2.4-1.4-4-3.6-4.8-6.5c-1.5,2.8-3.3,4.9-5.5,6.4c-2.2,1.5-4.9,2.2-8.1,2.2
				c-2.8,0-5.2-0.7-7.4-2c-2.1-1.3-3.8-3.2-5-5.6c-1.2-2.4-1.8-5.2-1.8-8.4c0-1.1,0.1-2.3,0.2-3.4c0.5-3.8,1.8-7.2,3.9-10.2
				s4.9-5.3,8.3-7s7.2-2.5,11.3-2.5c5,0,9,1.2,12.1,3.5c3.1,2.4,4.7,5.9,4.7,10.5c0,0.5,0,1.3-0.1,2.4l-0.5,4.6c0,0.4-0.1,1-0.1,1.6
				c0,1.2,0.2,2,0.6,2.5s1.1,0.7,2,0.7c1.2,0,2.4-0.4,3.5-1.3c1.1-0.8,2.1-2.1,2.8-3.9c0.8-1.8,1.1-3.9,1.1-6.6c0-4.2-1-7.8-3-11
				c-2-3.1-4.9-5.5-8.8-7.2c-3.9-1.7-8.6-2.6-14.1-2.6c-6.8,0-12.7,1.3-17.5,3.9c-4.8,2.6-8.5,6.2-10.9,10.7
				c-2.5,4.5-3.7,9.6-3.7,15.2c0,7,2.2,12.5,6.7,16.7s11.4,6.2,20.8,6l-2.9,12.2c-8.6-0.1-15.8-1.6-21.6-4.5
				c-5.9-2.9-10.3-6.9-13.2-12.1s-4.4-11.3-4.4-18.4c0-8.9,2.3-16.5,6.8-22.9c4.5-6.3,10.6-11.1,18.1-14.3s15.6-4.8,24.2-4.8
				C-1896.7,991.9-1889.9,993.1-1884.1,995.5z M-1905.1,1028.8c0-1.9-0.5-3.2-1.5-3.9c-1-0.8-2.1-1.1-3.4-1.1c-1.5,0-2.8,0.5-4,1.4
				c-1.2,1-2,2.6-2.3,5.1c0,0.3-0.1,0.8-0.1,1.4c0,1.9,0.5,3.2,1.5,4c1,0.7,2.2,1.1,3.5,1.1c1.4,0,2.7-0.5,4-1.4
				c1.2-1,2-2.6,2.3-5.1C-1905.1,1029.9-1905.1,1029.4-1905.1,1028.8z"/>
			<path class="st2" d="M-1803.5,1020.7l-1.4,6.5h7.5v13.8h-10.5l-1.8,8.5h-14.1l1.8-8.5h-9.5l-1.8,8.5h-14l1.8-8.5h-9.6v-13.8h12.6
				l1.4-6.5h-9.4v-13.8h12.3l1.7-8h14l-1.7,8h9.5l1.7-8h14.1l-1.7,8h7.8v13.8H-1803.5z M-1817.5,1020.7h-9.5l-1.4,6.5h9.5
				L-1817.5,1020.7z"/>
			<path class="st2" d="M-1759.6,997.9l-1.8,32.4h-13l-1.8-32.4H-1759.6z M-1760.4,1035v14.5h-15V1035H-1760.4z"/>
		</g>
	</g>
	<path class="st8" d="M-1939.6,1131.7c136.3,10.5,238.6-50.9,238.6-114.9S-1792.8,901-1906,901s-205,51.9-205,115.8
		c0,42.3,28.7,89.8,95.8,102.3l-4.2,73.4L-1939.6,1131.7z"/>
</g>
<g>
	<path class="st9" d="M-1627.8,398.8h-291.5l-120.4,65.3l0.7-65.3h-72.4c-8,0-14.5-6.5-14.5-14.5V134.6c0-8,6.5-14.5,14.5-14.5
		h483.5c8,0,14.5,6.5,14.5,14.5v249.6C-1613.3,392.2-1619.8,398.8-1627.8,398.8z"/>
	<g>
		<g>
			<defs>
				<path id="SVGID_5_" d="M-1637.7,391.3h-281.6l-116.3,61.8l0.7-61.8h-70c-7.7,0-14.1-6.2-14.1-13.8V141.4
					c0-7.6,6.3-13.8,14.1-13.8h467.2c7.7,0,14.1,6.2,14.1,13.8v236.2C-1623.6,385.1-1630,391.3-1637.7,391.3z"/>
			</defs>
			<clipPath id="SVGID_6_">
				<use xlink:href="#SVGID_5_"  style="overflow:visible;"/>
			</clipPath>
			<g class="st10">
				<path d="M-2068.4,192.2v33h50.3v62.7h-50.3v37.5h57.2v66.4h-107.9V126.1h107.9v66L-2068.4,192.2L-2068.4,192.2z"/>
				<path d="M-1864.9,126.1v66h-43v199.6h-50.8V192.2h-42.5v-66L-1864.9,126.1L-1864.9,126.1z"/>
				<path d="M-1800.4,126.1v265.6h-50.8V126.1H-1800.4z"/>
				<path d="M-1622.3,391.8h-50.7l-53.7-133.6v133.6h-50.8V126.1h50.8l53.7,135.8V126.1h50.8v265.7H-1622.3z"/>
			</g>
		</g>
	</g>
	<g>
		<path class="st2" d="M-2050.8,219.9c4.7,3.8,7,9.6,7,17.1c0,4.2-1,7.8-2.9,11c-1.9,3.1-4.6,5.6-8.1,7.4c-3.5,1.8-7.4,2.7-11.9,2.8
			v7.5h-22v-22.5h8.9c4.2,0,7.5-0.5,9.6-1.4c2.2-1,3.3-2.5,3.3-4.7c0-1.2-0.3-2.2-1-2.9s-1.5-1.1-2.6-1.1c-1.3,0-2.3,0.4-3,1.3
			c-0.7,0.9-1,2-1,3.4h-22.1c-0.2-4.3,0.7-8.3,2.6-11.9c1.9-3.6,5-6.5,9.1-8.7c4.1-2.2,9.2-3.2,15.3-3.2
			C-2061.7,214.1-2055.5,216-2050.8,219.9z M-2065.8,273.5V296h-23.3v-22.5H-2065.8z"/>
		<path class="st2" d="M-1964.6,285.4c-2.4,3.5-5.8,6.2-10.3,8.3c-4.5,2-9.8,3.1-16,3.1v8.5h-5.4v-8.7c-8.3-0.7-15.1-3.1-20.3-7.3
			c-5.2-4.2-8-9.9-8.5-17.3h25c0.2,3.1,1.5,5.2,3.8,6.2v-10.5l-2.4-0.6c-5.4-1.5-9.8-3-13.4-4.6s-6.7-3.9-9.3-7.2
			c-2.6-3.2-3.9-7.5-3.9-12.8c0-4.7,1.3-8.7,3.9-12c2.6-3.4,6.1-5.9,10.5-7.8c4.4-1.8,9.3-2.9,14.6-3.1v-8.5h5.4v8.6
			c8.5,0.5,15.3,2.8,20.3,6.9c5,4.1,7.8,9.9,8.3,17.2h-25.3c-0.3-2.9-1.4-4.8-3.3-5.8v10.5l4.1,1.3c5.3,1.6,9.7,3.2,13.1,4.8
			c3.4,1.6,6.4,3.9,8.9,7s3.8,7.1,3.8,12.1C-1961,278.1-1962.2,281.9-1964.6,285.4z M-1996.3,246.5v-8.9c-2.5,0.4-3.8,1.7-3.8,3.9
			C-2000.1,243.5-1998.9,245.1-1996.3,246.5z M-1987.5,277.5c0.9-0.7,1.3-1.8,1.3-3.1c0-1.9-1.6-3.6-4.8-5v9.4
			C-1989.5,278.7-1988.4,278.3-1987.5,277.5z"/>
		<path class="st2" d="M-1832.5,212.4c9,3.8,16.1,9.4,21.1,17s7.5,16.8,7.5,27.8c0,7.1-1.7,13.7-5.2,19.8s-8.1,10.9-13.8,14.4
			c-5.7,3.5-11.8,5.3-18.2,5.3c-5.4,0-10-1.1-13.7-3.3c-3.7-2.2-6.2-5.6-7.5-10c-2.3,4.3-5.1,7.6-8.5,9.9c-3.4,2.3-7.6,3.4-12.6,3.4
			c-4.3,0-8.1-1-11.4-3.1c-3.3-2-5.9-4.9-7.7-8.7c-1.8-3.7-2.8-8.1-2.8-13c0-1.8,0.1-3.5,0.3-5.3c0.7-5.9,2.7-11.2,6-15.9
			c3.3-4.7,7.6-8.3,12.9-10.9c5.3-2.6,11.1-3.9,17.5-3.9c7.7,0,14,1.8,18.9,5.5s7.3,9.1,7.3,16.3c0,0.8-0.1,2-0.2,3.7l-0.8,7.2
			c-0.1,0.6-0.1,1.5-0.1,2.5c0,1.8,0.3,3.1,1,3.9c0.6,0.7,1.7,1.1,3.2,1.1c1.9,0,3.7-0.7,5.5-2c1.8-1.3,3.2-3.3,4.4-6
			c1.2-2.7,1.7-6.1,1.7-10.2c0-6.5-1.5-12.2-4.6-17s-7.6-8.6-13.7-11.2c-6-2.6-13.3-4-21.9-4c-10.6,0-19.6,2-27.1,6.1
			s-13.1,9.6-16.9,16.6s-5.7,14.8-5.7,23.5c0,10.8,3.5,19.4,10.4,25.9c7,6.5,17.7,9.6,32.3,9.4l-4.4,19c-13.3-0.1-24.5-2.5-33.6-6.9
			c-9.1-4.5-15.9-10.8-20.5-18.8c-4.6-8.1-6.8-17.5-6.8-28.5c0-13.8,3.5-25.7,10.6-35.5s16.4-17.2,28-22.2s24.1-7.5,37.6-7.5
			C-1852.1,206.7-1841.6,208.6-1832.5,212.4z M-1865.1,264c0-2.9-0.8-4.9-2.3-6.1c-1.6-1.2-3.3-1.7-5.3-1.7c-2.3,0-4.3,0.7-6.3,2.2
			c-1.9,1.5-3.1,4.1-3.5,7.8c-0.1,0.5-0.1,1.2-0.1,2.1c0,3,0.8,5,2.3,6.1c1.6,1.1,3.4,1.7,5.4,1.7c2.2,0,4.2-0.7,6.1-2.2
			c1.9-1.5,3.1-4.1,3.5-7.8C-1865.2,265.6-1865.1,264.9-1865.1,264z"/>
		<path class="st2" d="M-1707.4,251.4l-2.1,10.1h11.7v21.4h-16.3l-2.8,13.1h-21.8l2.8-13.1h-14.7l-2.8,13.1h-21.7l2.8-13.1h-14.9
			v-21.4h19.6l2.1-10.1h-14.5V230h19.1l2.6-12.4h21.7l-2.6,12.4h14.7l2.6-12.4h21.8l-2.6,12.4h12.2v21.4H-1707.4z M-1729.2,251.4
			h-14.7l-2.1,10.1h14.7L-1729.2,251.4z"/>
		<path class="st2" d="M-1639.3,216l-2.8,50.2h-20.1l-2.8-50.2H-1639.3z M-1640.5,273.5V296h-23.3v-22.5H-1640.5z"/>
	</g>
</g>
<g>
	<rect x="10" y="8.3" class="st11" width="492.1" height="492.1"/>
	<g>
		<path class="st12" d="M75.5,101.6v26.6h44.2v33.9H75.5v29.1h50.1v35.7H37.5V65.9h88.1v35.7L75.5,101.6L75.5,101.6z"/>
		<path class="st12" d="M280.7,66v35.7h-36.9v125.2h-37.9V101.7h-36.5V66H280.7z"/>
		<path class="st12" d="M333.8,65.9v160.9h-38.1V65.9H333.8z"/>
		<path class="st12" d="M477.1,226.8h-38.1l-50.2-89.8v89.8h-38.1V66.1h38.1l50.2,90.9V66.1h38.1V226.8z"/>
		<rect x="147.2" y="191.4" class="st12" width="30.8" height="35.5"/>
	</g>
	<g>
		<path class="st12" d="M282.1,326.5l-5.5,45.9c-0.2,1.4-0.2,2.8-0.4,4.1c-0.2,1.4-0.2,2.8-0.2,4.3c0,3.5,1.1,5.5,3.2,5.5
			c3.9,0,7.4-3.4,10.6-9.9c3.2-6.7,4.8-14,4.8-22c0-13.3-4.1-24.3-12.1-32.8c-8-8.7-18.1-12.9-30.3-12.9c-13.3,0-24.3,5.3-33.3,15.8
			c-9,10.6-13.5,23.4-13.5,38.6c0,15.6,4.4,28.5,13.5,38.8c9,10.3,20.4,15.4,34,15.4c14.4,0,27.7-3.7,39.7-11l8,15.4
			c-0.4,0.2-0.7,0.4-1.1,0.5c-0.4,0.2-0.5,0.2-0.5,0.4l-1.8,0.9c-14,7.4-28.2,11.3-42.7,11.3c-16.8,0-31-4.6-42.7-13.8
			c-8.3-6.6-14.7-15.1-19.3-25.2c-4.6-10.3-7.1-21.3-7.1-32.8c0-20.2,6.4-37.2,19.1-51c12.8-13.8,28.5-20.7,47.5-20.7
			c17,0,31.2,6,42.9,17.9c11.5,11.7,17.4,26.4,17.4,44c0,13.6-3.4,25.5-10.3,35.3c-6.7,9.9-14.9,14.7-24.3,14.7
			c-5.3,0-9.9-2.8-13.8-8.7c-6.4,6-12.6,9-18.3,9c-7.4,0-13.6-3.5-18.8-10.6c-5-7.1-7.4-16-7.4-26.6c0-11.7,3-21.4,9-29.2
			c6-7.8,13.5-11.9,22.3-11.9c4.8,0,9.6,1.9,13.8,5.8l1.1-4.1h16.3V326.5z M262.1,360.4c0-5-0.9-9-2.8-12.2
			c-1.9-3.2-4.3-4.8-7.1-4.8c-3.5,0-6.6,2.3-8.9,6.9c-2.5,4.6-3.5,10.3-3.5,17c0,5.1,0.7,9.4,2.1,12.8c1.4,3.4,3.4,5,5.7,5
			c3.7,0,7.1-2.5,9.9-7.4C260.7,372.3,262.1,366.8,262.1,360.4z"/>
	</g>
	<polygon class="st12" points="155.8,370.5 155.8,391.6 133.2,391.6 125.9,434.6 94.9,434.6 102.3,391.6 86.2,391.6 78.7,434.6 
		48.1,434.6 55.5,391.6 36,391.6 36,370.5 59.3,370.5 62.1,352.9 42.9,352.9 42.9,331.7 66,331.7 72.9,291.4 103.6,291.4 
		96.5,331.7 112.6,331.7 119.7,291.4 150.5,291.4 143.4,331.7 162.2,331.7 162.2,352.9 139.9,352.9 136.9,370.5 	"/>
	<g>
		<path class="st12" d="M386.8,383.5h-31.7v-30.1c2.3,0.2,3.9,0.2,5,0.2c6,0,10.5-1.2,13.3-3.9c2.8-2.7,4.1-6.7,4.1-12.4
			c0-9-2.3-13.6-7.1-13.6c-4.6,0-6.9,4.6-6.9,14h-32.1c0-11.5,2.5-20.6,7.3-26.9c3.2-4.4,7.8-8,13.5-10.6c5.3-2.7,11.5-3.9,18.3-3.9
			c11.7,0,21.3,3.7,28.7,11.3c7.4,7.6,11.2,17.4,11.2,29.1c0,9-1.9,16.5-6,22.2c-3.9,5.8-9.9,9.7-17.7,11.7v13.1H386.8z
			 M389.8,411.5c0,5.1-1.8,9.4-5.5,12.9c-3.7,3.5-8.2,5.5-13.1,5.5c-5,0-9.4-1.8-13.1-5.5c-3.5-3.7-5.5-8.2-5.5-13.3
			c0-5.1,1.8-9.6,5.5-13.3c3.5-3.7,8-5.5,13.1-5.5c5.3,0,9.7,1.8,13.3,5.5C388,401.8,389.8,406.2,389.8,411.5z"/>
		<path class="st12" d="M466.2,411.5c0,5.1-1.9,9.4-5.5,12.9c-3.7,3.5-8.2,5.5-13.1,5.5c-5,0-9.4-1.8-13.1-5.5
			c-3.5-3.7-5.5-8.2-5.5-13.3c0-5.1,1.8-9.6,5.5-13.1c3.7-3.7,8-5.5,13.1-5.5c5.3,0,9.7,1.8,13.3,5.5
			C464.4,401.6,466.2,406.2,466.2,411.5z M464.3,384h-32.4v-86h32.4V384z"/>
	</g>
</g>
<g>
	<rect x="-421.4" y="139.6" class="st11" width="361.1" height="361.1"/>
	<g>
		<path class="st12" d="M-373.3,208v19.5h32.5v24.9h-32.5v21.4h36.7v26.2h-64.6V181.8h64.6V208L-373.3,208L-373.3,208z"/>
		<path class="st12" d="M-222.8,181.9V208h-27.1v91.9h-27.8v-91.8h-26.8v-26.2H-222.8z"/>
		<path class="st12" d="M-183.8,181.8v118.1h-27.9V181.8H-183.8z"/>
		<path class="st12" d="M-78.7,299.9h-27.9l-36.8-65.9v65.9h-27.9V182h27.9l36.8,66.7V182h27.9V299.9z"/>
		<rect x="-320.7" y="273.9" class="st12" width="22.6" height="26"/>
	</g>
	<g>
		<path class="st12" d="M-221.8,373l-4,33.7c-0.1,1-0.1,2.1-0.3,3c-0.1,1-0.1,2.1-0.1,3.1c0,2.6,0.8,4,2.3,4c2.9,0,5.5-2.5,7.8-7.3
			c2.3-4.9,3.5-10.3,3.5-16.1c0-9.8-3-17.8-8.8-24.1c-5.9-6.4-13.3-9.5-22.2-9.5c-9.8,0-17.8,3.9-24.4,11.6
			c-6.6,7.8-9.9,17.2-9.9,28.3c0,11.4,3.3,20.9,9.9,28.5c6.6,7.5,15,11.3,25,11.3c10.5,0,20.3-2.7,29.1-8.1l5.9,11.3
			c-0.3,0.1-0.5,0.3-0.8,0.4c-0.3,0.1-0.4,0.1-0.4,0.3l-1.3,0.7c-10.3,5.5-20.7,8.3-31.3,8.3c-12.4,0-22.8-3.4-31.3-10.1
			c-6.1-4.8-10.8-11.1-14.2-18.5c-3.4-7.5-5.2-15.6-5.2-24.1c0-14.8,4.7-27.3,14-37.5s20.9-15.2,34.9-15.2
			c12.5,0,22.9,4.4,31.5,13.1c8.5,8.6,12.7,19.4,12.7,32.3c0,10-2.5,18.7-7.5,25.9c-4.9,7.3-10.9,10.8-17.8,10.8
			c-3.9,0-7.3-2.1-10.1-6.4c-4.7,4.4-9.2,6.6-13.4,6.6c-5.5,0-10-2.6-13.8-7.8c-3.6-5.2-5.5-11.7-5.5-19.5c0-8.6,2.2-15.7,6.6-21.5
			c4.4-5.7,9.9-8.7,16.4-8.7c3.5,0,7,1.4,10.1,4.3l0.8-3h12V373z M-236.5,397.9c0-3.6-0.7-6.6-2.1-9s-3.1-3.5-5.2-3.5
			c-2.6,0-4.8,1.7-6.5,5.1c-1.8,3.4-2.6,7.5-2.6,12.5c0,3.8,0.5,6.9,1.6,9.4c1,2.5,2.5,3.6,4.2,3.6c2.7,0,5.2-1.8,7.3-5.5
			C-237.5,406.6-236.5,402.5-236.5,397.9z"/>
	</g>
	<polygon class="st12" points="-314.4,405.3 -314.4,420.7 -331.1,420.7 -336.4,452.3 -359.2,452.3 -353.7,420.7 -365.5,420.7 
		-371,452.3 -393.5,452.3 -388,420.7 -402.3,420.7 -402.3,405.3 -385.3,405.3 -383.2,392.4 -397.3,392.4 -397.3,376.8 -380.4,376.8 
		-375.3,347.3 -352.8,347.3 -358,376.8 -346.2,376.8 -340.9,347.3 -318.3,347.3 -323.5,376.8 -309.7,376.8 -309.7,392.4 
		-326.1,392.4 -328.3,405.3 	"/>
	<g>
		<path class="st12" d="M-145,414.8h-23.3v-22.1c1.7,0.1,2.9,0.1,3.6,0.1c4.4,0,7.7-0.9,9.8-2.9c2.1-2,3-4.9,3-9.1
			c0-6.6-1.7-10-5.2-10c-3.4,0-5.1,3.4-5.1,10.3h-23.5c0-8.5,1.8-15.1,5.3-19.8c2.3-3.3,5.7-5.9,9.9-7.8c3.9-2,8.5-2.9,13.4-2.9
			c8.6,0,15.6,2.7,21.1,8.3c5.5,5.6,8.2,12.7,8.2,21.3c0,6.6-1.4,12.1-4.4,16.3c-2.9,4.3-7.3,7.2-13,8.6v9.6H-145z M-142.8,435.4
			c0,3.8-1.3,6.9-4,9.5c-2.7,2.6-6,4-9.6,4c-3.6,0-6.9-1.3-9.6-4c-2.6-2.7-4-6-4-9.8s1.3-7,4-9.8c2.6-2.7,5.9-4,9.6-4
			c3.9,0,7.2,1.3,9.8,4C-144.1,428.2-142.8,431.5-142.8,435.4z"/>
		<path class="st12" d="M-86.7,435.4c0,3.8-1.4,6.9-4,9.5c-2.7,2.6-6,4-9.6,4c-3.6,0-6.9-1.3-9.6-4c-2.6-2.7-4-6-4-9.8s1.3-7,4-9.6
			c2.7-2.7,5.9-4,9.6-4c3.9,0,7.2,1.3,9.8,4C-88,428.1-86.7,431.5-86.7,435.4z M-88.1,415.2h-23.8v-63.1h23.8V415.2z"/>
	</g>
</g>
<g>
	<rect x="-666.2" y="325" class="st13" width="181.3" height="181.3"/>
	<g>
		<path class="st5" d="M-639,360v9.3h15.5v11.9H-639v10.2h17.6V404h-30.9v-56.5h30.9V360L-639,360L-639,360z"/>
		<path class="st5" d="M-566.9,347.5V360h-13v44h-13.3v-44H-606v-12.5H-566.9z"/>
		<path class="st5" d="M-548.3,347.5V404h-13.4v-56.5H-548.3z"/>
		<path class="st5" d="M-497.9,404h-13.4l-17.6-31.5V404h-13.4v-56.4h13.4l17.6,31.9v-31.9h13.4V404z"/>
		<rect x="-613.8" y="391.5" class="st5" width="10.8" height="12.5"/>
	</g>
	<g>
		<path class="st5" d="M-566.4,439l-1.9,16.1c-0.1,0.5-0.1,1-0.1,1.4c-0.1,0.5-0.1,1-0.1,1.5c0,1.2,0.4,1.9,1.1,1.9
			c1.4,0,2.6-1.2,3.7-3.5c1.1-2.4,1.7-4.9,1.7-7.7c0-4.7-1.4-8.5-4.2-11.5c-2.8-3.1-6.3-4.5-10.6-4.5c-4.7,0-8.5,1.9-11.7,5.5
			c-3.2,3.7-4.7,8.2-4.7,13.6c0,5.5,1.6,10,4.7,13.6c3.2,3.6,7.2,5.4,12,5.4c5,0,9.7-1.3,13.9-3.9l2.8,5.4c-0.1,0.1-0.2,0.1-0.4,0.2
			s-0.2,0.1-0.2,0.1l-0.6,0.3c-4.9,2.6-9.9,4-15,4c-5.9,0-10.9-1.6-15-4.9c-2.9-2.3-5.2-5.3-6.8-8.8c-1.6-3.6-2.5-7.5-2.5-11.5
			c0-7.1,2.2-13.1,6.7-17.9c4.5-4.9,10-7.3,16.7-7.3c6,0,11,2.1,15.1,6.3c4,4.1,6.1,9.3,6.1,15.4c0,4.8-1.2,9-3.6,12.4
			c-2.4,3.5-5.2,5.2-8.5,5.2c-1.9,0-3.5-1-4.9-3.1c-2.2,2.1-4.4,3.2-6.4,3.2c-2.6,0-4.8-1.2-6.6-3.7c-1.7-2.5-2.6-5.6-2.6-9.3
			c0-4.1,1.1-7.5,3.2-10.3c2.1-2.7,4.7-4.2,7.8-4.2c1.7,0,3.4,0.7,4.9,2.1l0.4-1.4h5.7V439z M-573.5,450.9c0-1.7-0.3-3.2-1-4.3
			c-0.7-1.1-1.5-1.7-2.5-1.7c-1.2,0-2.3,0.8-3.1,2.4c-0.9,1.6-1.2,3.6-1.2,6c0,1.8,0.2,3.3,0.7,4.5c0.5,1.2,1.2,1.7,2,1.7
			c1.3,0,2.5-0.9,3.5-2.6C-574,455.1-573.5,453.1-573.5,450.9z"/>
	</g>
	<polygon class="st5" points="-610.8,454.4 -610.8,461.8 -618.7,461.8 -621.3,477 -632.2,477 -629.6,461.8 -635.2,461.8 -637.8,477 
		-648.6,477 -646,461.8 -652.9,461.8 -652.9,454.4 -644.7,454.4 -643.7,448.3 -650.4,448.3 -650.4,440.8 -642.3,440.8 -639.9,426.7 
		-629.1,426.7 -631.6,440.8 -626,440.8 -623.5,426.7 -612.6,426.7 -615.1,440.8 -608.5,440.8 -608.5,448.3 -616.4,448.3 
		-617.4,454.4 	"/>
	<g>
		<path class="st5" d="M-529.6,459h-11.1v-10.6c0.8,0.1,1.4,0.1,1.7,0.1c2.1,0,3.7-0.4,4.7-1.4s1.4-2.4,1.4-4.4
			c0-3.2-0.8-4.8-2.5-4.8c-1.6,0-2.4,1.6-2.4,4.9h-11.3c0-4,0.9-7.2,2.6-9.5c1.1-1.6,2.7-2.8,4.7-3.7c1.9-0.9,4-1.4,6.4-1.4
			c4.1,0,7.5,1.3,10.1,4c2.6,2.7,3.9,6.1,3.9,10.2c0,3.2-0.7,5.8-2.1,7.8c-1.4,2.1-3.5,3.4-6.2,4.1v4.6H-529.6z M-528.6,468.8
			c0,1.8-0.6,3.3-1.9,4.5c-1.3,1.2-2.9,1.9-4.6,1.9c-1.7,0-3.3-0.6-4.6-1.9c-1.2-1.3-1.9-2.9-1.9-4.7s0.6-3.4,1.9-4.7
			c1.2-1.3,2.8-1.9,4.6-1.9c1.9,0,3.4,0.6,4.7,1.9C-529.2,465.4-528.6,467-528.6,468.8z"/>
		<path class="st5" d="M-501.8,468.8c0,1.8-0.7,3.3-1.9,4.5c-1.3,1.2-2.9,1.9-4.6,1.9s-3.3-0.6-4.6-1.9c-1.2-1.3-1.9-2.9-1.9-4.7
			s0.6-3.4,1.9-4.6c1.3-1.3,2.8-1.9,4.6-1.9c1.9,0,3.4,0.6,4.7,1.9C-502.4,465.4-501.8,467-501.8,468.8z M-502.4,459.2h-11.4V429
			h11.4V459.2z"/>
	</g>
</g>
<g>
	<rect x="-843.9" y="364" class="st14" width="143.3" height="143.3"/>
	<g>
		<path class="st15" d="M-822.3,391.6v7.4h12.3v9.4h-12.3v8.1h13.9v9.9h-24.4v-44.7h24.4v9.9L-822.3,391.6L-822.3,391.6z"/>
		<path class="st15" d="M-765.4,381.7v9.9h-10.2v34.7h-10.5v-34.7h-10.1v-9.9H-765.4z"/>
		<path class="st15" d="M-750.7,381.7v44.7h-10.6v-44.7H-750.7z"/>
		<path class="st15" d="M-710.9,426.4h-10.6l-13.9-24.9v24.9h-10.6v-44.6h10.6l13.9,25.2v-25.2h10.6V426.4z"/>
		<rect x="-802.4" y="416.5" class="st15" width="8.5" height="9.8"/>
	</g>
	<g>
		<path class="st15" d="M-765,454l-1.5,12.7c0,0.4,0,0.8-0.1,1.1c0,0.4,0,0.8,0,1.2c0,1,0.3,1.5,0.9,1.5c1.1,0,2.1-0.9,3-2.8
			c0.9-1.9,1.3-3.9,1.3-6.1c0-3.7-1.1-6.7-3.3-9.1c-2.2-2.4-5-3.6-8.4-3.6c-3.7,0-6.7,1.5-9.2,4.4c-2.5,3-3.7,6.5-3.7,10.7
			c0,4.3,1.2,7.9,3.7,10.8c2.5,2.9,5.7,4.3,9.4,4.3c4,0,7.7-1,11-3l2.2,4.3c-0.1,0-0.2,0.1-0.3,0.1s-0.1,0-0.1,0.1l-0.5,0.2
			c-3.9,2.1-7.8,3.1-11.9,3.1c-4.7,0-8.6-1.3-11.9-3.8c-2.3-1.8-4.1-4.2-5.4-7c-1.3-2.9-2-5.9-2-9.1c0-5.6,1.8-10.3,5.3-14.2
			c3.5-3.8,7.9-5.8,13.2-5.8c4.7,0,8.7,1.7,11.9,5c3.2,3.2,4.8,7.3,4.8,12.2c0,3.8-0.9,7.1-2.9,9.8c-1.9,2.8-4.1,4.1-6.7,4.1
			c-1.5,0-2.8-0.8-3.8-2.4c-1.8,1.7-3.5,2.5-5.1,2.5c-2.1,0-3.8-1-5.2-3c-1.4-2-2.1-4.4-2.1-7.4c0-3.2,0.8-6,2.5-8.1
			c1.7-2.2,3.7-3.3,6.2-3.3c1.3,0,2.7,0.5,3.8,1.6l0.3-1.1L-765,454L-765,454z M-770.6,463.4c0-1.4-0.2-2.5-0.8-3.4
			c-0.5-0.9-1.2-1.3-2-1.3c-1,0-1.8,0.6-2.5,1.9c-0.7,1.3-1,2.9-1,4.7c0,1.4,0.2,2.6,0.6,3.5c0.4,0.9,0.9,1.4,1.6,1.4
			c1,0,2-0.7,2.8-2.1C-771,466.7-770.6,465.2-770.6,463.4z"/>
	</g>
	<polygon class="st15" points="-800,466.2 -800,472.1 -806.3,472.1 -808.4,484 -817,484 -814.9,472.1 -819.4,472.1 -821.4,484 
		-830,484 -827.9,472.1 -833.3,472.1 -833.3,466.2 -826.9,466.2 -826.1,461.4 -831.4,461.4 -831.4,455.5 -825,455.5 -823.1,444.3 
		-814.6,444.3 -816.5,455.5 -812.1,455.5 -810.1,444.3 -801.5,444.3 -803.5,455.5 -798.3,455.5 -798.3,461.4 -804.5,461.4 
		-805.3,466.2 	"/>
	<g>
		<path class="st15" d="M-735.9,469.8h-8.8v-8.4c0.6,0,1.1,0,1.4,0c1.7,0,2.9-0.3,3.7-1.1c0.8-0.7,1.1-1.9,1.1-3.4
			c0-2.5-0.6-3.8-2-3.8c-1.3,0-1.9,1.3-1.9,3.9h-8.9c0-3.2,0.7-5.7,2-7.5c0.9-1.2,2.2-2.2,3.7-3c1.5-0.7,3.2-1.1,5.1-1.1
			c3.2,0,5.9,1,8,3.1c2.1,2.1,3.1,4.8,3.1,8.1c0,2.5-0.5,4.6-1.7,6.1c-1.1,1.6-2.8,2.7-4.9,3.2L-735.9,469.8L-735.9,469.8z
			 M-735.1,477.6c0,1.4-0.5,2.6-1.5,3.6c-1,1-2.3,1.5-3.6,1.5c-1.4,0-2.6-0.5-3.6-1.5c-1-1-1.5-2.3-1.5-3.7s0.5-2.7,1.5-3.7
			c1-1,2.2-1.5,3.6-1.5c1.5,0,2.7,0.5,3.7,1.5C-735.6,474.9-735.1,476.1-735.1,477.6z"/>
		<path class="st15" d="M-713.9,477.6c0,1.4-0.5,2.6-1.5,3.6c-1,1-2.3,1.5-3.6,1.5s-2.6-0.5-3.6-1.5c-1-1-1.5-2.3-1.5-3.7
			s0.5-2.7,1.5-3.6c1-1,2.2-1.5,3.6-1.5c1.5,0,2.7,0.5,3.7,1.5C-714.4,474.9-713.9,476.1-713.9,477.6z M-714.5,470h-9v-23.9h9V470z"
			/>
	</g>
</g>
<g>
	<rect x="-1002.6" y="372.8" class="st14" width="134.7" height="134.7"/>
	<g>
		<path class="st15" d="M-982.3,398.8v6.9h11.5v8.8h-11.5v7.6h13.1v9.3h-23v-42h23v9.3L-982.3,398.8L-982.3,398.8z"/>
		<path class="st15" d="M-928.8,389.5v9.3h-9.6v32.7h-9.9v-32.6h-9.5v-9.3H-928.8z"/>
		<path class="st15" d="M-914.9,389.4v42h-9.9v-42H-914.9z"/>
		<path class="st15" d="M-877.6,431.4h-9.9l-13.1-23.4v23.4h-9.9v-41.9h9.9l13.1,23.7v-23.7h9.9V431.4z"/>
		<rect x="-963.6" y="422.2" class="st15" width="8" height="9.3"/>
	</g>
	<g>
		<path class="st15" d="M-928.4,457.4l-1.4,12c0,0.4,0,0.7-0.1,1.1c0,0.4,0,0.7,0,1.1c0,0.9,0.3,1.4,0.8,1.4c1,0,1.9-0.9,2.8-2.6
			c0.8-1.8,1.2-3.7,1.2-5.7c0-3.5-1.1-6.3-3.1-8.6c-2.1-2.3-4.7-3.4-7.9-3.4c-3.5,0-6.3,1.4-8.7,4.1c-2.4,2.8-3.5,6.1-3.5,10.1
			c0,4.1,1.2,7.4,3.5,10.1c2.4,2.7,5.3,4,8.9,4c3.7,0,7.2-1,10.4-2.9l2.1,4c-0.1,0-0.2,0.1-0.3,0.1c-0.1,0-0.1,0-0.1,0.1l-0.5,0.2
			c-3.7,1.9-7.4,3-11.1,3c-4.4,0-8.1-1.2-11.1-3.6c-2.2-1.7-3.8-3.9-5-6.6c-1.2-2.7-1.8-5.5-1.8-8.6c0-5.3,1.7-9.7,5-13.3
			s7.4-5.4,12.4-5.4c4.4,0,8.1,1.6,11.2,4.7c3,3.1,4.5,6.9,4.5,11.5c0,3.6-0.9,6.7-2.7,9.2c-1.8,2.6-3.9,3.8-6.3,3.8
			c-1.4,0-2.6-0.7-3.6-2.3c-1.7,1.6-3.3,2.4-4.8,2.4c-1.9,0-3.6-0.9-4.9-2.8c-1.3-1.8-1.9-4.2-1.9-6.9c0-3.1,0.8-5.6,2.4-7.6
			s3.5-3.1,5.8-3.1c1.2,0,2.5,0.5,3.6,1.5l0.3-1.1L-928.4,457.4L-928.4,457.4z M-933.7,466.3c0-1.3-0.2-2.4-0.7-3.2
			c-0.5-0.8-1.1-1.2-1.8-1.2c-0.9,0-1.7,0.6-2.3,1.8c-0.6,1.2-0.9,2.7-0.9,4.4c0,1.3,0.2,2.5,0.6,3.3s0.9,1.3,1.5,1.3
			c1,0,1.8-0.6,2.6-1.9C-934,469.4-933.7,467.9-933.7,466.3z"/>
	</g>
	<polygon class="st15" points="-961.4,468.9 -961.4,474.4 -967.3,474.4 -969.2,485.6 -977.3,485.6 -975.3,474.4 -979.6,474.4 
		-981.5,485.6 -989.5,485.6 -987.6,474.4 -992.6,474.4 -992.6,468.9 -986.6,468.9 -985.8,464.3 -990.8,464.3 -990.8,458.8 
		-984.8,458.8 -983,448.3 -975,448.3 -976.9,458.8 -972.7,458.8 -970.8,448.3 -962.8,448.3 -964.6,458.8 -959.7,458.8 -959.7,464.3 
		-965.5,464.3 -966.3,468.9 	"/>
	<g>
		<path class="st15" d="M-901.1,472.3h-8.3v-7.9c0.6,0,1,0,1.3,0c1.6,0,2.7-0.3,3.5-1c0.7-0.7,1.1-1.8,1.1-3.2
			c0-2.4-0.6-3.6-1.8-3.6c-1.2,0-1.8,1.2-1.8,3.7h-8.4c0-3,0.6-5.4,1.9-7c0.8-1.2,2-2.1,3.5-2.8c1.4-0.7,3-1,4.8-1
			c3.1,0,5.5,1,7.5,3s2.9,4.5,2.9,7.6c0,2.4-0.5,4.3-1.6,5.8c-1,1.5-2.6,2.5-4.6,3.1L-901.1,472.3L-901.1,472.3z M-900.3,479.6
			c0,1.3-0.5,2.5-1.4,3.4c-1,0.9-2.1,1.4-3.4,1.4s-2.5-0.5-3.4-1.4c-0.9-1-1.4-2.1-1.4-3.5c0-1.3,0.5-2.5,1.4-3.5
			c0.9-1,2.1-1.4,3.4-1.4c1.4,0,2.5,0.5,3.5,1.4C-900.8,477.1-900.3,478.2-900.3,479.6z"/>
		<path class="st15" d="M-880.4,479.6c0,1.3-0.5,2.5-1.4,3.4c-1,0.9-2.1,1.4-3.4,1.4s-2.5-0.5-3.4-1.4c-0.9-1-1.4-2.1-1.4-3.5
			c0-1.3,0.5-2.5,1.4-3.4c1-1,2.1-1.4,3.4-1.4c1.4,0,2.5,0.5,3.5,1.4C-880.9,477-880.4,478.2-880.4,479.6z M-880.9,472.4h-8.5V450
			h8.5V472.4z"/>
	</g>
</g>
<g>
	<rect x="-1142.7" y="387.3" class="st14" width="120.5" height="120.5"/>
	<g>
		<path class="st15" d="M-1124.6,410.6v6.2h10.3v7.9h-10.3v6.8h11.7v8.3h-20.6v-37.6h20.6v8.3L-1124.6,410.6L-1124.6,410.6z"/>
		<path class="st15" d="M-1076.7,402.3v8.3h-8.6v29.2h-8.8v-29.2h-8.5v-8.3H-1076.7z"/>
		<path class="st15" d="M-1064.3,402.2v37.6h-8.9v-37.6H-1064.3z"/>
		<path class="st15" d="M-1030.8,439.8h-8.9l-11.7-21v21h-8.9v-37.5h8.9l11.7,21.2v-21.2h8.9V439.8z"/>
		<rect x="-1107.8" y="431.5" class="st15" width="7.2" height="8.3"/>
	</g>
	<g>
		<path class="st15" d="M-1076.3,463.1l-1.3,10.7c0,0.3,0,0.7-0.1,1c0,0.3,0,0.7,0,1c0,0.8,0.2,1.3,0.7,1.3c0.9,0,1.7-0.8,2.5-2.3
			c0.7-1.6,1.1-3.3,1.1-5.1c0-3.1-1-5.7-2.8-7.7c-1.9-2-4.2-3-7.1-3c-3.1,0-5.7,1.2-7.8,3.7c-2.1,2.5-3.1,5.5-3.1,9
			c0,3.6,1,6.7,3.1,9.1c2.1,2.4,4.8,3.6,7.9,3.6c3.4,0,6.5-0.9,9.3-2.6l1.9,3.6c-0.1,0-0.2,0.1-0.2,0.1s-0.1,0-0.1,0.1l-0.4,0.2
			c-3.3,1.7-6.6,2.6-10,2.6c-3.9,0-7.2-1.1-10-3.2c-1.9-1.5-3.4-3.5-4.5-5.9c-1.1-2.4-1.7-5-1.7-7.7c0-4.7,1.5-8.7,4.5-11.9
			c3-3.2,6.7-4.8,11.1-4.8c4,0,7.3,1.4,10,4.2c2.7,2.7,4.1,6.2,4.1,10.3c0,3.2-0.8,6-2.4,8.2c-1.6,2.3-3.5,3.4-5.7,3.4
			c-1.2,0-2.3-0.7-3.2-2c-1.5,1.4-2.9,2.1-4.3,2.1c-1.7,0-3.2-0.8-4.4-2.5c-1.2-1.7-1.7-3.7-1.7-6.2c0-2.7,0.7-5,2.1-6.8
			s3.1-2.8,5.2-2.8c1.1,0,2.2,0.5,3.2,1.4l0.2-1L-1076.3,463.1L-1076.3,463.1z M-1081,471c0-1.2-0.2-2.1-0.7-2.9
			c-0.5-0.7-1-1.1-1.7-1.1c-0.8,0-1.5,0.5-2.1,1.6c-0.6,1.1-0.8,2.4-0.8,4c0,1.2,0.2,2.2,0.5,3s0.8,1.2,1.3,1.2
			c0.9,0,1.7-0.6,2.3-1.7C-1081.4,473.8-1081,472.5-1081,471z"/>
	</g>
	<polygon class="st15" points="-1105.8,473.3 -1105.8,478.3 -1111.1,478.3 -1112.8,488.3 -1120.1,488.3 -1118.3,478.3 
		-1122.1,478.3 -1123.8,488.3 -1131,488.3 -1129.2,478.3 -1133.8,478.3 -1133.8,473.3 -1128.4,473.3 -1127.7,469.2 -1132.2,469.2 
		-1132.2,464.3 -1126.8,464.3 -1125.2,454.9 -1118,454.9 -1119.7,464.3 -1115.9,464.3 -1114.3,454.9 -1107.1,454.9 -1108.7,464.3 
		-1104.3,464.3 -1104.3,469.2 -1109.5,469.2 -1110.3,473.3 	"/>
	<g>
		<path class="st15" d="M-1051.9,476.4h-7.4v-7c0.5,0,0.9,0,1.2,0c1.4,0,2.4-0.3,3.1-0.9s1-1.6,1-2.9c0-2.1-0.5-3.2-1.7-3.2
			c-1.1,0-1.6,1.1-1.6,3.3h-7.5c0-2.7,0.6-4.8,1.7-6.3c0.7-1,1.8-1.9,3.1-2.5c1.2-0.6,2.7-0.9,4.3-0.9c2.7,0,5,0.9,6.7,2.6
			c1.7,1.8,2.6,4.1,2.6,6.8c0,2.1-0.5,3.8-1.4,5.2c-0.9,1.4-2.3,2.3-4.1,2.7L-1051.9,476.4L-1051.9,476.4z M-1051.2,482.9
			c0,1.2-0.4,2.2-1.3,3s-1.9,1.3-3.1,1.3s-2.2-0.4-3.1-1.3c-0.8-0.9-1.3-1.9-1.3-3.1s0.4-2.2,1.3-3.1c0.8-0.9,1.9-1.3,3.1-1.3
			c1.2,0,2.3,0.4,3.1,1.3C-1051.6,480.6-1051.2,481.7-1051.2,482.9z"/>
		<path class="st15" d="M-1033.4,482.9c0,1.2-0.5,2.2-1.3,3c-0.9,0.8-1.9,1.3-3.1,1.3s-2.2-0.4-3.1-1.3c-0.8-0.9-1.3-1.9-1.3-3.1
			s0.4-2.2,1.3-3.1c0.9-0.9,1.9-1.3,3.1-1.3c1.2,0,2.3,0.4,3.1,1.3C-1033.8,480.6-1033.4,481.7-1033.4,482.9z M-1033.8,476.5h-7.6
			v-20.1h7.6V476.5z"/>
	</g>
</g>
<g>
	<rect x="-1242.7" y="420.5" class="st14" width="87.1" height="87.1"/>
	<g>
		<path class="st15" d="M-1229.6,437.4v4.5h7.5v5.7h-7.5v4.9h8.4v6h-14.9v-27.2h14.9v6L-1229.6,437.4L-1229.6,437.4z"/>
		<path class="st15" d="M-1195,431.3v6h-6.2v21.1h-6.4v-21.1h-6.2v-6H-1195z"/>
		<path class="st15" d="M-1186,431.3v27.2h-6.4v-27.2H-1186z"/>
		<path class="st15" d="M-1161.8,458.5h-6.4l-8.5-15.1v15.1h-6.4v-27.1h6.4l8.5,15.3v-15.3h6.4V458.5z"/>
		<rect x="-1217.5" y="452.5" class="st15" width="5.2" height="6"/>
	</g>
	<g>
		<path class="st15" d="M-1194.8,475.3l-0.9,7.7c0,0.2,0,0.5-0.1,0.7c0,0.2,0,0.5,0,0.7c0,0.6,0.2,0.9,0.5,0.9
			c0.7,0,1.3-0.6,1.8-1.7c0.5-1.1,0.8-2.4,0.8-3.7c0-2.2-0.7-4.1-2-5.5c-1.3-1.5-3.1-2.2-5.1-2.2c-2.2,0-4.1,0.9-5.6,2.7
			c-1.5,1.8-2.3,3.9-2.3,6.5c0,2.6,0.7,4.8,2.3,6.6c1.5,1.7,3.4,2.6,5.7,2.6c2.4,0,4.7-0.6,6.7-1.9l1.3,2.6c-0.1,0-0.1,0.1-0.2,0.1
			s-0.1,0-0.1,0.1l-0.3,0.1c-2.4,1.3-4.8,1.9-7.2,1.9c-2.8,0-5.2-0.8-7.2-2.3c-1.4-1.1-2.5-2.5-3.3-4.2c-0.8-1.7-1.2-3.6-1.2-5.5
			c0-3.4,1.1-6.3,3.2-8.6c2.2-2.3,4.8-3.5,8-3.5c2.9,0,5.3,1,7.2,3c1.9,2,2.9,4.5,2.9,7.4c0,2.3-0.6,4.3-1.7,6
			c-1.1,1.7-2.5,2.5-4.1,2.5c-0.9,0-1.7-0.5-2.3-1.5c-1.1,1-2.1,1.5-3.1,1.5c-1.3,0-2.3-0.6-3.2-1.8c-0.8-1.2-1.3-2.7-1.3-4.5
			c0-2,0.5-3.6,1.5-4.9c1-1.3,2.3-2,3.8-2c0.8,0,1.6,0.3,2.3,1l0.2-0.7L-1194.8,475.3L-1194.8,475.3z M-1198.1,481
			c0-0.8-0.1-1.5-0.5-2.1c-0.3-0.5-0.7-0.8-1.2-0.8c-0.6,0-1.1,0.4-1.5,1.2c-0.4,0.8-0.6,1.7-0.6,2.9c0,0.9,0.1,1.6,0.4,2.2
			c0.2,0.6,0.6,0.8,1,0.8c0.6,0,1.2-0.4,1.7-1.3C-1198.4,483-1198.1,482.1-1198.1,481z"/>
	</g>
	<polygon class="st15" points="-1216.1,482.7 -1216.1,486.3 -1219.9,486.3 -1221.1,493.6 -1226.4,493.6 -1225.1,486.3 
		-1227.8,486.3 -1229.1,493.6 -1234.3,493.6 -1233,486.3 -1236.3,486.3 -1236.3,482.7 -1232.4,482.7 -1231.9,479.8 -1235.1,479.8 
		-1235.1,476.2 -1231.2,476.2 -1230.1,469.4 -1224.9,469.4 -1226.1,476.2 -1223.4,476.2 -1222.2,469.4 -1217,469.4 -1218.2,476.2 
		-1215,476.2 -1215,479.8 -1218.8,479.8 -1219.3,482.7 	"/>
	<g>
		<path class="st15" d="M-1177.1,484.9h-5.4v-5.1c0.4,0,0.7,0,0.8,0c1,0,1.8-0.2,2.2-0.7s0.7-1.1,0.7-2.1c0-1.5-0.4-2.3-1.2-2.3
			c-0.8,0-1.2,0.8-1.2,2.4h-5.4c0-1.9,0.4-3.5,1.2-4.5c0.5-0.7,1.3-1.3,2.3-1.8c0.9-0.4,1.9-0.7,3.1-0.7c2,0,3.6,0.6,4.8,1.9
			c1.3,1.3,1.9,2.9,1.9,4.9c0,1.5-0.3,2.8-1,3.7c-0.7,1-1.7,1.6-3,2L-1177.1,484.9L-1177.1,484.9z M-1176.6,489.6
			c0,0.9-0.3,1.6-0.9,2.2c-0.6,0.6-1.4,0.9-2.2,0.9c-0.8,0-1.6-0.3-2.2-0.9c-0.6-0.6-0.9-1.4-0.9-2.2c0-0.9,0.3-1.6,0.9-2.2
			c0.6-0.6,1.3-0.9,2.2-0.9c0.9,0,1.6,0.3,2.2,0.9C-1176.9,488-1176.6,488.8-1176.6,489.6z"/>
		<path class="st15" d="M-1163.7,489.6c0,0.9-0.3,1.6-0.9,2.2c-0.6,0.6-1.4,0.9-2.2,0.9s-1.6-0.3-2.2-0.9c-0.6-0.6-0.9-1.4-0.9-2.2
			c0-0.9,0.3-1.6,0.9-2.2c0.6-0.6,1.3-0.9,2.2-0.9c0.9,0,1.6,0.3,2.2,0.9C-1164,488-1163.7,488.8-1163.7,489.6z M-1164,485h-5.5
			v-14.5h5.5V485z"/>
	</g>
</g>
<g>
	<rect x="-1325" y="442.4" class="st16" width="66.3" height="66.3"/>
	<g>
		<path class="st17" d="M-1315.1,455.2v3.4h5.7v4.4h-5.7v3.7h6.4v4.6h-11.3v-20.7h11.3v4.6L-1315.1,455.2L-1315.1,455.2z"/>
		<path class="st17" d="M-1288.7,450.7v4.6h-4.7v16.1h-4.9v-16.1h-4.7v-4.6H-1288.7z"/>
		<path class="st17" d="M-1281.9,450.6v20.7h-4.9v-20.7H-1281.9z"/>
		<path class="st17" d="M-1263.5,471.3h-4.9l-6.5-11.5v11.5h-4.9v-20.6h4.9l6.5,11.7v-11.7h4.9V471.3z"/>
		<rect x="-1305.8" y="466.8" class="st17" width="4" height="4.6"/>
	</g>
	<g>
		<path class="st17" d="M-1288.5,484.1l-0.7,5.9c0,0.2,0,0.4,0,0.5c0,0.2,0,0.4,0,0.5c0,0.5,0.1,0.7,0.4,0.7c0.5,0,1-0.4,1.4-1.3
			c0.4-0.9,0.6-1.8,0.6-2.8c0-1.7-0.5-3.1-1.5-4.2c-1-1.1-2.3-1.7-3.9-1.7c-1.7,0-3.1,0.7-4.3,2c-1.2,1.4-1.7,3-1.7,5
			c0,2,0.6,3.7,1.7,5s2.6,2,4.4,2c1.8,0,3.6-0.5,5.1-1.4l1,2c0,0-0.1,0-0.1,0.1s-0.1,0-0.1,0l-0.2,0.1c-1.8,1-3.6,1.5-5.5,1.5
			c-2.2,0-4-0.6-5.5-1.8c-1.1-0.8-1.9-1.9-2.5-3.2c-0.6-1.3-0.9-2.7-0.9-4.2c0-2.6,0.8-4.8,2.5-6.6s3.7-2.7,6.1-2.7
			c2.2,0,4,0.8,5.5,2.3c1.5,1.5,2.2,3.4,2.2,5.6c0,1.8-0.4,3.3-1.3,4.5c-0.9,1.3-1.9,1.9-3.1,1.9c-0.7,0-1.3-0.4-1.8-1.1
			c-0.8,0.8-1.6,1.2-2.3,1.2c-1,0-1.8-0.5-2.4-1.4c-0.6-0.9-1-2-1-3.4c0-1.5,0.4-2.8,1.2-3.8c0.8-1,1.7-1.5,2.9-1.5
			c0.6,0,1.2,0.3,1.8,0.8l0.1-0.5L-1288.5,484.1L-1288.5,484.1z M-1291.1,488.5c0-0.6-0.1-1.2-0.4-1.6s-0.5-0.6-0.9-0.6
			c-0.5,0-0.8,0.3-1.1,0.9c-0.3,0.6-0.5,1.3-0.5,2.2c0,0.7,0.1,1.2,0.3,1.6c0.2,0.4,0.4,0.6,0.7,0.6c0.5,0,0.9-0.3,1.3-1
			C-1291.3,490-1291.1,489.3-1291.1,488.5z"/>
	</g>
	<polygon class="st17" points="-1304.7,489.8 -1304.7,492.5 -1307.7,492.5 -1308.6,498 -1312.6,498 -1311.6,492.5 -1313.7,492.5 
		-1314.6,498 -1318.6,498 -1317.6,492.5 -1320.1,492.5 -1320.1,489.8 -1317.2,489.8 -1316.8,487.5 -1319.2,487.5 -1319.2,484.8 
		-1316.3,484.8 -1315.4,479.6 -1311.5,479.6 -1312.4,484.8 -1310.3,484.8 -1309.4,479.6 -1305.4,479.6 -1306.3,484.8 -1303.9,484.8 
		-1303.9,487.5 -1306.8,487.5 -1307.2,489.8 	"/>
	<g>
		<path class="st17" d="M-1275.1,491.5h-4.1v-3.9c0.3,0,0.5,0,0.6,0c0.8,0,1.3-0.2,1.7-0.5c0.4-0.3,0.5-0.9,0.5-1.6
			c0-1.2-0.3-1.8-0.9-1.8c-0.6,0-0.9,0.6-0.9,1.8h-4.1c0-1.5,0.3-2.6,0.9-3.5c0.4-0.6,1-1,1.7-1.4c0.7-0.3,1.5-0.5,2.3-0.5
			c1.5,0,2.7,0.5,3.7,1.5c1,1,1.4,2.2,1.4,3.7c0,1.2-0.3,2.1-0.8,2.8c-0.5,0.8-1.3,1.3-2.3,1.5L-1275.1,491.5L-1275.1,491.5z
			 M-1274.7,495c0,0.7-0.2,1.2-0.7,1.7c-0.5,0.5-1,0.7-1.7,0.7s-1.2-0.2-1.7-0.7c-0.5-0.5-0.7-1-0.7-1.7s0.2-1.2,0.7-1.7
			c0.5-0.5,1-0.7,1.7-0.7c0.7,0,1.3,0.2,1.7,0.7C-1274.9,493.8-1274.7,494.4-1274.7,495z"/>
		<path class="st17" d="M-1264.9,495c0,0.7-0.3,1.2-0.7,1.7c-0.5,0.5-1,0.7-1.7,0.7s-1.2-0.2-1.7-0.7c-0.5-0.5-0.7-1-0.7-1.7
			s0.2-1.2,0.7-1.7c0.5-0.5,1-0.7,1.7-0.7c0.7,0,1.3,0.2,1.7,0.7C-1265.1,493.8-1264.9,494.4-1264.9,495z M-1265.1,491.5h-4.2v-11
			h4.2V491.5z"/>
	</g>
</g>
</svg>
